<svg width="28" height="28" viewBox="0 0 28 28" fill="none" xmlns="http://www.w3.org/2000/svg">
<path d="M28 14C28 21.732 21.732 28 14 28C6.268 28 0 21.732 0 14C0 6.268 6.268 0 14 0C21.732 0 28 6.268 28 14Z" fill="#0CB43F"/>
<path d="M20.7064 10.7064C20.8886 10.5178 20.9894 10.2652 20.9871 10.003C20.9848 9.74083 20.8797 9.49002 20.6942 9.30461C20.5088 9.1192 20.258 9.01403 19.9958 9.01176C19.7336 9.00948 19.481 9.11027 19.2924 9.29243L12.4994 16.0854L9.20643 12.7924C9.01783 12.6103 8.76523 12.5095 8.50303 12.5118C8.24083 12.514 7.99002 12.6192 7.80461 12.8046C7.6192 12.99 7.51403 13.2408 7.51176 13.503C7.50948 13.7652 7.61027 14.0178 7.79243 14.2064L11.7924 18.2064C11.98 18.3939 12.2343 18.4992 12.4994 18.4992C12.7646 18.4992 13.0189 18.3939 13.2064 18.2064L20.7064 10.7064Z" fill="url(#paint0_linear_162_4143)"/>
<defs>
<linearGradient id="paint0_linear_162_4143" x1="10.0304" y1="9.96843" x2="12.1614" y2="20.6594" gradientUnits="userSpaceOnUse">
<stop stop-color="white"/>
<stop offset="1" stop-color="#E3FFD9"/>
</linearGradient>
</defs>
</svg>
