<svg width="24" height="25" viewBox="0 0 24 25" fill="none" xmlns="http://www.w3.org/2000/svg">
<path d="M6 22.8379C5.16667 22.8379 4.45833 22.5462 3.875 21.9629C3.29167 21.3796 3 20.6712 3 19.8379V5.83789C3 5.00456 3.29167 4.29622 3.875 3.71289C4.45833 3.12956 5.16667 2.83789 6 2.83789H17V18.8379H6C5.71667 18.8379 5.47917 18.9337 5.2875 19.1254C5.09583 19.3171 5 19.5546 5 19.8379C5 20.1212 5.09583 20.3587 5.2875 20.5504C5.47917 20.7421 5.71667 20.8379 6 20.8379H19V4.83789H21V22.8379H6ZM9 16.8379H15V4.83789H9V16.8379ZM7 16.8379V4.83789H6C5.71667 4.83789 5.47917 4.93372 5.2875 5.12539C5.09583 5.31706 5 5.55456 5 5.83789V17.0129C5.16667 16.9629 5.32917 16.9212 5.4875 16.8879C5.64583 16.8546 5.81667 16.8379 6 16.8379H7Z" fill="#FF6130"/>
</svg>
