<svg width="30" height="30" viewBox="0 0 30 30" fill="none" xmlns="http://www.w3.org/2000/svg">
<path d="M8.04397 23.4163C8.48662 23.4163 8.85735 23.2666 9.15618 22.9672C9.45471 22.6678 9.60397 22.2968 9.60397 21.8541C9.60397 21.4115 9.45427 21.0407 9.15485 20.7419C8.85544 20.4434 8.48441 20.2941 8.04177 20.2941C7.59912 20.2941 7.22853 20.4438 6.93 20.7432C6.63118 21.0426 6.48177 21.4137 6.48177 21.8563C6.48177 22.299 6.63147 22.6696 6.93088 22.9681C7.23059 23.2669 7.60162 23.4163 8.04397 23.4163ZM8.04397 16.5609C8.48662 16.5609 8.85735 16.4112 9.15618 16.1118C9.45471 15.8124 9.60397 15.4413 9.60397 14.9987C9.60397 14.556 9.45427 14.1854 9.15485 13.8869C8.85544 13.5884 8.48441 13.4391 8.04177 13.4391C7.59912 13.4391 7.22853 13.5888 6.93 13.8882C6.63118 14.1876 6.48177 14.5587 6.48177 15.0013C6.48177 15.444 6.63147 15.8146 6.93088 16.1131C7.23059 16.4116 7.60162 16.5609 8.04397 16.5609ZM8.04397 9.70588C8.48662 9.70588 8.85735 9.55618 9.15618 9.25677C9.45471 8.95735 9.60397 8.58632 9.60397 8.14368C9.60397 7.70103 9.45427 7.33044 9.15485 7.03191C8.85544 6.73309 8.48441 6.58368 8.04177 6.58368C7.59912 6.58368 7.22853 6.73338 6.93 7.03279C6.63118 7.3322 6.48177 7.70324 6.48177 8.14588C6.48177 8.58853 6.63147 8.95926 6.93088 9.25809C7.23059 9.55662 7.60162 9.70588 8.04397 9.70588ZM13.4051 23.1785H23.4503V20.5319H13.4051V23.1785ZM13.4051 16.3235H23.4503V13.6765H13.4051V16.3235ZM13.4051 9.46809H23.4503V6.82147H13.4051V9.46809ZM3.19015 30C2.29868 30 1.54412 29.6912 0.926471 29.0735C0.308824 28.4559 0 27.7013 0 26.8099V3.19015C0 2.29868 0.308824 1.54412 0.926471 0.926471C1.54412 0.308824 2.29868 0 3.19015 0H26.8099C27.7013 0 28.4559 0.308824 29.0735 0.926471C29.6912 1.54412 30 2.29868 30 3.19015V26.8099C30 27.7013 29.6912 28.4559 29.0735 29.0735C28.4559 29.6912 27.7013 30 26.8099 30H3.19015ZM3.19015 27.3529H26.8099C26.9457 27.3529 27.0701 27.2963 27.1831 27.1831C27.2963 27.0701 27.3529 26.9457 27.3529 26.8099V3.19015C27.3529 3.05426 27.2963 2.92985 27.1831 2.81691C27.0701 2.70368 26.9457 2.64706 26.8099 2.64706H3.19015C3.05426 2.64706 2.92985 2.70368 2.81691 2.81691C2.70368 2.92985 2.64706 3.05426 2.64706 3.19015V26.8099C2.64706 26.9457 2.70368 27.0701 2.81691 27.1831C2.92985 27.2963 3.05426 27.3529 3.19015 27.3529Z" fill="#65B8FF"/>
</svg>
