<svg width="80" height="104" viewBox="0 0 80 104" fill="none" xmlns="http://www.w3.org/2000/svg">
<path d="M40 49.625L31.5 56.125C31 56.5417 30.5 56.5625 30 56.1875C29.5 55.8125 29.3333 55.3333 29.5 54.75L32.75 44.25L24 37.25C23.5833 36.8333 23.4583 36.3542 23.625 35.8125C23.7917 35.2708 24.1667 35 24.75 35H35.5L38.75 24.75C38.9167 24.1667 39.3333 23.875 40 23.875C40.6667 23.875 41.0833 24.1667 41.25 24.75L44.5 35H55.125C55.7083 35 56.1042 35.2708 56.3125 35.8125C56.5208 36.3542 56.4167 36.8333 56 37.25L47.125 44.25L50.375 54.75C50.5417 55.3333 50.375 55.8125 49.875 56.1875C49.375 56.5625 48.875 56.5417 48.375 56.125L40 49.625ZM40 95L16.625 102.75C14.9583 103.333 13.4375 103.125 12.0625 102.125C10.6875 101.125 10 99.7917 10 98.125V66.375C6.83333 62.875 4.375 58.875 2.625 54.375C0.875 49.875 0 45.0833 0 40C0 28.8333 3.875 19.375 11.625 11.625C19.375 3.875 28.8333 0 40 0C51.1667 0 60.625 3.875 68.375 11.625C76.125 19.375 80 28.8333 80 40C80 45.0833 79.125 49.875 77.375 54.375C75.625 58.875 73.1667 62.875 70 66.375V98.125C70 99.7917 69.3125 101.125 67.9375 102.125C66.5625 103.125 65.0417 103.333 63.375 102.75L40 95ZM40 70C48.3333 70 55.4167 67.0833 61.25 61.25C67.0833 55.4167 70 48.3333 70 40C70 31.6667 67.0833 24.5833 61.25 18.75C55.4167 12.9167 48.3333 10 40 10C31.6667 10 24.5833 12.9167 18.75 18.75C12.9167 24.5833 10 31.6667 10 40C10 48.3333 12.9167 55.4167 18.75 61.25C24.5833 67.0833 31.6667 70 40 70ZM20 90.125L40 85L60 90.125V74.625C57.0833 76.2917 53.9375 77.6042 50.5625 78.5625C47.1875 79.5208 43.6667 80 40 80C36.3333 80 32.8125 79.5208 29.4375 78.5625C26.0625 77.6042 22.9167 76.2917 20 74.625V90.125Z" fill="white"/>
</svg>
