<svg width="548" height="78" viewBox="0 0 548 78" fill="none" xmlns="http://www.w3.org/2000/svg">
<g clip-path="url(#clip0_792_6824)">
<path d="M44.1783 59.9308L65 39.0008L44.1783 18.0708C43.9903 17.8239 43.7514 17.6202 43.4778 17.4736C43.2042 17.327 42.9023 17.241 42.5925 17.2212C42.2828 17.2014 41.9724 17.2484 41.6824 17.3591C41.3924 17.4697 41.1295 17.6413 40.9116 17.8624C40.6937 18.0834 40.5258 18.3487 40.4194 18.6403C40.3129 18.9318 40.2703 19.2428 40.2945 19.5523C40.3187 19.8617 40.4091 20.1624 40.5595 20.4339C40.71 20.7053 40.9171 20.9413 41.1667 21.1258L56.745 36.8341L15.2967 36.8341C14.722 36.8341 14.1709 37.0624 13.7646 37.4687C13.3583 37.8751 13.13 38.4262 13.13 39.0008C13.13 39.5754 13.3583 40.1265 13.7646 40.5329C14.1709 40.9392 14.722 41.1675 15.2967 41.1675L56.745 41.1675L41.1667 56.8758C40.7615 57.2838 40.5351 57.836 40.5371 58.411C40.5392 58.9859 40.7695 59.5365 41.1775 59.9416C41.5855 60.3468 42.1377 60.5732 42.7127 60.5712C43.2876 60.5691 43.8382 60.3388 44.2433 59.9308L44.1783 59.9308Z" fill="white"/>
</g>
<g clip-path="url(#clip1_792_6824)">
<path d="M138.178 59.9308L159 39.0008L138.178 18.0708C137.99 17.8239 137.751 17.6202 137.478 17.4736C137.204 17.327 136.902 17.241 136.593 17.2212C136.283 17.2014 135.972 17.2484 135.682 17.3591C135.392 17.4697 135.13 17.6413 134.912 17.8624C134.694 18.0834 134.526 18.3487 134.419 18.6403C134.313 18.9318 134.27 19.2428 134.294 19.5523C134.319 19.8617 134.409 20.1624 134.56 20.4339C134.71 20.7053 134.917 20.9413 135.167 21.1258L150.745 36.8341L109.297 36.8341C108.722 36.8341 108.171 37.0624 107.765 37.4687C107.358 37.8751 107.13 38.4262 107.13 39.0008C107.13 39.5754 107.358 40.1265 107.765 40.5329C108.171 40.9392 108.722 41.1675 109.297 41.1675L150.745 41.1675L135.167 56.8758C134.762 57.2838 134.535 57.836 134.537 58.411C134.539 58.9859 134.77 59.5365 135.177 59.9416C135.585 60.3468 136.138 60.5732 136.713 60.5712C137.288 60.5691 137.838 60.3388 138.243 59.9308L138.178 59.9308Z" fill="white"/>
</g>
<g clip-path="url(#clip2_792_6824)">
<path d="M232.178 59.9308L253 39.0008L232.178 18.0708C231.99 17.8239 231.751 17.6202 231.478 17.4736C231.204 17.327 230.902 17.241 230.593 17.2212C230.283 17.2014 229.972 17.2484 229.682 17.3591C229.392 17.4697 229.13 17.6413 228.912 17.8624C228.694 18.0834 228.526 18.3487 228.419 18.6403C228.313 18.9318 228.27 19.2428 228.294 19.5523C228.319 19.8617 228.409 20.1624 228.56 20.4339C228.71 20.7053 228.917 20.9413 229.167 21.1258L244.745 36.8341L203.297 36.8341C202.722 36.8341 202.171 37.0624 201.765 37.4687C201.358 37.8751 201.13 38.4262 201.13 39.0008C201.13 39.5754 201.358 40.1265 201.765 40.5329C202.171 40.9392 202.722 41.1675 203.297 41.1675L244.745 41.1675L229.167 56.8758C228.762 57.2838 228.535 57.836 228.537 58.411C228.539 58.9859 228.77 59.5365 229.177 59.9416C229.585 60.3468 230.138 60.5732 230.713 60.5712C231.288 60.5691 231.838 60.3388 232.243 59.9308L232.178 59.9308Z" fill="white"/>
</g>
<g clip-path="url(#clip3_792_6824)">
<path d="M326.178 59.9308L347 39.0008L326.178 18.0708C325.99 17.8239 325.751 17.6202 325.478 17.4736C325.204 17.327 324.902 17.241 324.593 17.2212C324.283 17.2014 323.972 17.2484 323.682 17.3591C323.392 17.4697 323.13 17.6413 322.912 17.8624C322.694 18.0834 322.526 18.3487 322.419 18.6403C322.313 18.9318 322.27 19.2428 322.294 19.5523C322.319 19.8617 322.409 20.1624 322.56 20.4339C322.71 20.7053 322.917 20.9413 323.167 21.1258L338.745 36.8341L297.297 36.8341C296.722 36.8341 296.171 37.0624 295.765 37.4687C295.358 37.8751 295.13 38.4262 295.13 39.0008C295.13 39.5754 295.358 40.1265 295.765 40.5329C296.171 40.9392 296.722 41.1675 297.297 41.1675L338.745 41.1675L323.167 56.8758C322.762 57.2838 322.535 57.836 322.537 58.411C322.539 58.9859 322.77 59.5365 323.177 59.9416C323.585 60.3468 324.138 60.5732 324.713 60.5712C325.288 60.5691 325.838 60.3388 326.243 59.9308L326.178 59.9308Z" fill="white"/>
</g>
<g clip-path="url(#clip4_792_6824)">
<path d="M420.178 59.9308L441 39.0008L420.178 18.0708C419.99 17.8239 419.751 17.6202 419.478 17.4736C419.204 17.327 418.902 17.241 418.593 17.2212C418.283 17.2014 417.972 17.2484 417.682 17.3591C417.392 17.4697 417.13 17.6413 416.912 17.8624C416.694 18.0834 416.526 18.3487 416.419 18.6403C416.313 18.9318 416.27 19.2428 416.294 19.5523C416.319 19.8617 416.409 20.1624 416.56 20.4339C416.71 20.7053 416.917 20.9413 417.167 21.1258L432.745 36.8341L391.297 36.8341C390.722 36.8341 390.171 37.0624 389.765 37.4687C389.358 37.8751 389.13 38.4262 389.13 39.0008C389.13 39.5754 389.358 40.1265 389.765 40.5329C390.171 40.9392 390.722 41.1675 391.297 41.1675L432.745 41.1675L417.167 56.8758C416.762 57.2838 416.535 57.836 416.537 58.411C416.539 58.9859 416.77 59.5365 417.177 59.9416C417.585 60.3468 418.138 60.5732 418.713 60.5712C419.288 60.5691 419.838 60.3388 420.243 59.9308L420.178 59.9308Z" fill="white"/>
</g>
<defs>
<clipPath id="clip0_792_6824">
<rect width="78" height="78" fill="white" transform="translate(0 78) rotate(-90)"/>
</clipPath>
<clipPath id="clip1_792_6824">
<rect width="78" height="78" fill="white" transform="translate(94 78) rotate(-90)"/>
</clipPath>
<clipPath id="clip2_792_6824">
<rect width="78" height="78" fill="white" transform="translate(188 78) rotate(-90)"/>
</clipPath>
<clipPath id="clip3_792_6824">
<rect width="78" height="78" fill="white" transform="translate(282 78) rotate(-90)"/>
</clipPath>
<clipPath id="clip4_792_6824">
<rect width="78" height="78" fill="white" transform="translate(376 78) rotate(-90)"/>
</clipPath>
</defs>
</svg>
