<svg width="333" height="380" viewBox="0 0 333 380" fill="none" xmlns="http://www.w3.org/2000/svg">
<path d="M252.534 136.001C235.839 116.193 278.245 152.082 242.26 106.452C245.866 109.402 258.559 128.567 259.443 118.215C248.813 95.206 216.474 49.2983 242.687 99.6445C185.043 16.5879 240.737 154.732 252.534 136.001Z" fill="white"/>
<path d="M325.291 344.856C320.348 336.642 316.664 327.876 311.354 319.849C314.405 328.604 336.885 349.28 327.351 327.866C329.658 330.215 334.107 327.771 332.095 324.676C327.43 312.997 295.988 268.123 310.887 298.96C261.629 225.135 319.42 372.985 325.309 344.845L325.291 344.856Z" fill="white"/>
<path d="M181.303 66.1032C183.588 60.302 188.014 58.7733 178.722 46.8855C180.533 49.0696 185.852 55.2889 185.616 48.7645C171.293 17.9712 112.117 -34.6033 153.048 34.339C148.893 25.3199 124.907 0.906645 136.847 24.537C139.66 31.101 180.141 92.0648 162.235 54.501C166.581 58.1263 180.684 81.0343 181.303 66.1032Z" fill="white"/>
<path d="M194.248 185.68C184.511 167.99 184.388 166.909 195.481 184.518C197.509 188.205 203.181 184.93 201.133 181.254C200 179.205 198.874 177.125 197.703 175.097C212.799 177.649 181.388 136.689 178.136 132.357C173.619 131.56 183.757 147.992 184.573 150.576C181.055 145.871 162.578 119.68 165.284 137.248C163.664 133.877 156.155 129.373 157.375 136.256C165.543 145.763 183.87 196.33 194.211 185.702L194.248 185.68Z" fill="white"/>
<path d="M245.929 322.089C241.606 309.961 233.626 299.694 226.566 289.072C232.633 292.856 251.642 326.302 250.552 306.674C277.268 330.613 235.216 245.416 232.891 270.621C217.668 251.54 221.535 277.754 230.668 286.027C191.351 242.346 243.071 340.341 245.918 322.07L245.929 322.089Z" fill="white"/>
<path d="M85.0588 55.1063C93.8443 54.6664 84.3113 30.9985 71.7544 17.4898C66.1919 16.2692 78.1223 34.0709 78.4744 37.0227C73.4383 25.9578 51.7159 8.50107 64.0997 32.0756C29.231 -3.20694 88.8782 88.3081 85.04 55.1172L85.0588 55.1063Z" fill="white"/>
<path d="M123.26 134.844C128.178 141.019 136.661 136.196 131.827 129.297C134.195 134.44 143.208 136.173 141.025 128.444C138.404 125.9 114.093 79.0639 116.147 97.1085C109.918 86.8828 98.6522 91.4841 106.681 102.398C103.194 101.432 101.197 105.39 101.807 108.268C100.305 104.452 91.8903 103.626 94.7732 108.923C100.164 115.702 122.972 160.802 123.287 134.804L123.26 134.844Z" fill="white"/>
<path d="M193.75 276.719C210.043 273.973 159.109 208.478 183.835 252.521C180.254 244.973 154.165 214.011 161.417 237.719C140.736 228.05 171.775 270.752 175.119 279.363C191.703 285.839 171.764 259.716 168.855 254.158C175.918 258.845 187.462 291.894 193.75 276.719Z" fill="white"/>
<path d="M114.083 209.851C141.335 252.586 120.765 174.367 104.477 173.955C96.0372 163.328 91.0326 173.83 98.7168 181.588C93.9821 175.382 81.9511 173.063 90.3031 183.365C55.8394 147.223 96.0451 221.892 106.131 231.469C119.689 230.577 101.179 212.092 99.4016 206.107C104.883 211.957 108.543 220.336 114.989 224.778C126.816 219.501 103.613 202.299 102.063 193.152C106.769 198.223 110.093 204.241 114.091 209.821L114.083 209.851Z" fill="white"/>
<path d="M48.2508 120.258C58.9497 111.552 43.1677 102.259 36.6184 90.2647C35.0869 88.2192 16.0285 55.903 18.8703 68.2849C9.16438 64.3983 12.3614 76.2245 16.5797 80.625C13.7085 75.5219 3.40785 70.9521 5.74517 80.5953C11.8722 89.6029 34.2371 143.823 38.6142 122.867C41.3531 127.871 49.3249 126.499 48.2617 120.277L48.2508 120.258Z" fill="white"/>
<path d="M174.948 358.056C199.428 365.282 150.019 290.893 156.622 321.587C154.243 316.6 142.912 309.595 142.942 319.318C144.442 324.562 148.336 328.574 150.762 333.383C147.169 330.976 131.975 311.252 132.502 324.395C139.429 332.49 156.828 376.982 163.824 362.426C160.936 355.429 155.664 349.984 151.897 343.546C157.394 354.194 179.106 369.378 167.628 346.808C170.564 350.246 171.956 354.651 174.956 358.027L174.948 358.056Z" fill="white"/>
<path d="M80.5043 273.862C69.6212 257.484 78.6911 256.279 87.4807 270.636C81.2911 262.691 83.6582 254.864 92.7575 263.858C83.4335 232.182 130.067 301.112 126.409 308.482C103.375 318.55 94.6362 303.414 80.5043 273.862ZM101.439 282.408C105.769 288.823 110.597 294.8 114.543 301.461C119.974 306.964 104.524 286.537 101.439 282.408ZM91.2955 280.452C94.8813 285.969 98.0569 291.773 102.091 296.981C115.123 313.396 97.0965 286.293 91.2955 280.452Z" fill="white"/>
<path d="M24.6223 211.874C10.8681 188.615 10.7892 186.006 26.744 209.347C38.7911 214.686 15.5511 180.202 16.0544 174.828C3.25615 154.222 10.3621 176.462 13.9674 186.35C9.65469 180.702 -12.5044 150.952 -6.04691 171.938C-35.6946 131.864 11.3897 233.887 16.8228 212.07C17.8967 217.66 26.539 218.881 24.6114 211.855L24.6223 211.874Z" fill="white"/>
<path d="M36.9016 321.252C37.456 315.273 31.8388 310.227 29.4567 305.017C32.4234 312.845 57.9224 322.487 54.3474 310.353C-25.1154 195.272 23.0533 346.926 36.9313 321.26L36.9016 321.252Z" fill="white"/>
<path d="M94.9575 372.985C96.1154 370.264 108.75 371.633 94.7457 356.831C98.3487 359.559 108.439 370.661 109.162 360.202C104.719 353.027 98.5418 346.752 94.2452 339.267C93.5279 335.249 88.0693 338.025 89.2516 341.374C84.8386 333.73 71.6056 329.676 77.5324 342.631C57.7586 334.491 94.4206 399.813 94.9575 372.985Z" fill="white"/>
</svg>
