<svg width="110" height="100" viewBox="0 0 110 100" fill="none" xmlns="http://www.w3.org/2000/svg">
<path d="M54.3743 90C54.7077 90 55.041 89.9167 55.3743 89.75C55.7077 89.5833 55.9577 89.4167 56.1243 89.25L97.1243 48.25C98.1243 47.25 98.8535 46.125 99.3118 44.875C99.7702 43.625 99.9993 42.375 99.9993 41.125C99.9993 39.7917 99.7702 38.5208 99.3118 37.3125C98.8535 36.1042 98.1243 35.0417 97.1243 34.125L75.8743 12.875C74.9577 11.875 73.8952 11.1458 72.6868 10.6875C71.4785 10.2292 70.2077 10 68.8743 10C67.6243 10 66.3743 10.2292 65.1243 10.6875C63.8743 11.1458 62.7493 11.875 61.7493 12.875L60.3743 14.25L69.6243 23.625C70.8743 24.7917 71.791 26.125 72.3743 27.625C72.9577 29.125 73.2493 30.7083 73.2493 32.375C73.2493 35.875 72.0618 38.8125 69.6868 41.1875C67.3118 43.5625 64.3743 44.75 60.8743 44.75C59.2077 44.75 57.6035 44.4583 56.0618 43.875C54.5202 43.2917 53.166 42.4167 51.9993 41.25L42.6243 32L20.7493 53.875C20.4993 54.125 20.3118 54.3958 20.1868 54.6875C20.0618 54.9792 19.9993 55.2917 19.9993 55.625C19.9993 56.2917 20.2493 56.8958 20.7493 57.4375C21.2493 57.9792 21.8327 58.25 22.4993 58.25C22.8327 58.25 23.166 58.1667 23.4993 58C23.8327 57.8333 24.0827 57.6667 24.2493 57.5L37.7493 44C38.666 43.0833 39.8118 42.6042 41.1868 42.5625C42.5618 42.5208 43.7493 43 44.7493 44C45.666 44.9167 46.1243 46.0833 46.1243 47.5C46.1243 48.9167 45.666 50.0833 44.7493 51L31.3743 64.5C31.1243 64.75 30.9368 65.0208 30.8118 65.3125C30.6868 65.6042 30.6243 65.9167 30.6243 66.25C30.6243 66.9167 30.8743 67.5 31.3743 68C31.8743 68.5 32.4577 68.75 33.1243 68.75C33.4577 68.75 33.791 68.6667 34.1243 68.5C34.4577 68.3333 34.7077 68.1667 34.8743 68L48.3743 54.625C49.291 53.7083 50.4368 53.2292 51.8118 53.1875C53.1868 53.1458 54.3743 53.625 55.3743 54.625C56.291 55.5417 56.7493 56.7083 56.7493 58.125C56.7493 59.5417 56.291 60.7083 55.3743 61.625L41.9993 75.125C41.7493 75.2917 41.5618 75.5417 41.4368 75.875C41.3118 76.2083 41.2493 76.5417 41.2493 76.875C41.2493 77.5417 41.4993 78.125 41.9993 78.625C42.4993 79.125 43.0827 79.375 43.7493 79.375C44.0827 79.375 44.3952 79.3125 44.6868 79.1875C44.9785 79.0625 45.2493 78.875 45.4993 78.625L58.9993 65.25C59.916 64.3333 61.0618 63.8542 62.4368 63.8125C63.8118 63.7708 64.9993 64.25 65.9993 65.25C66.916 66.1667 67.3743 67.3333 67.3743 68.75C67.3743 70.1667 66.916 71.3333 65.9993 72.25L52.4993 85.75C52.2493 86 52.0618 86.2708 51.9368 86.5625C51.8118 86.8542 51.7493 87.1667 51.7493 87.5C51.7493 88.1667 52.0202 88.75 52.5618 89.25C53.1035 89.75 53.7077 90 54.3743 90ZM54.2493 100C51.166 100 48.4368 98.9792 46.0618 96.9375C43.6868 94.8958 42.291 92.3333 41.8743 89.25C39.041 88.8333 36.666 87.6667 34.7493 85.75C32.8327 83.8333 31.666 81.4583 31.2493 78.625C28.416 78.2083 26.0618 77.0208 24.1868 75.0625C22.3118 73.1042 21.166 70.75 20.7493 68C17.5827 67.5833 14.9993 66.2083 12.9993 63.875C10.9993 61.5417 9.99933 58.7917 9.99933 55.625C9.99933 53.9583 10.3118 52.3542 10.9368 50.8125C11.5618 49.2708 12.4577 47.9167 13.6243 46.75L35.4993 24.875C37.416 22.9583 39.7702 22 42.5618 22C45.3535 22 47.7077 22.9583 49.6243 24.875L58.9993 34.25C59.166 34.5 59.416 34.6875 59.7493 34.8125C60.0827 34.9375 60.416 35 60.7493 35C61.4993 35 62.1243 34.7708 62.6243 34.3125C63.1243 33.8542 63.3743 33.25 63.3743 32.5C63.3743 32.1667 63.3118 31.8333 63.1868 31.5C63.0618 31.1667 62.8743 30.9167 62.6243 30.75L44.7493 12.875C43.8327 11.875 42.7702 11.1458 41.5618 10.6875C40.3535 10.2292 39.0827 10 37.7493 10C36.4993 10 35.2493 10.2292 33.9993 10.6875C32.7493 11.1458 31.6243 11.875 30.6243 12.875L12.9993 30.625C11.8327 31.7917 10.9993 33.1667 10.4993 34.75C9.99933 36.3333 9.87433 37.9167 10.1243 39.5C10.3743 40.9167 10.0827 42.1667 9.24933 43.25C8.416 44.3333 7.291 44.9583 5.87433 45.125C4.45766 45.2917 3.20766 44.9792 2.12433 44.1875C1.041 43.3958 0.415997 42.2917 0.24933 40.875C-0.25067 37.7083 -0.021503 34.6042 0.93683 31.5625C1.89516 28.5208 3.541 25.8333 5.87433 23.5L23.4993 5.875C25.4993 3.95833 27.7285 2.5 30.1868 1.5C32.6452 0.5 35.166 0 37.7493 0C40.3327 0 42.8535 0.5 45.3118 1.5C47.7702 2.5 49.9577 3.95833 51.8743 5.875L53.2493 7.25L54.6243 5.875C56.6243 3.95833 58.8535 2.5 61.3118 1.5C63.7702 0.5 66.291 0 68.8743 0C71.4577 0 73.9785 0.5 76.4368 1.5C78.8952 2.5 81.0827 3.95833 82.9993 5.875L104.124 27C106.041 28.9167 107.499 31.125 108.499 33.625C109.499 36.125 109.999 38.6667 109.999 41.25C109.999 43.8333 109.499 46.3542 108.499 48.8125C107.499 51.2708 106.041 53.4583 104.124 55.375L63.1243 96.25C61.9577 97.4167 60.6035 98.3333 59.0618 99C57.5202 99.6667 55.916 100 54.2493 100Z" fill="white"/>
</svg>
