<svg width="84" height="70" viewBox="0 0 84 70" fill="none" xmlns="http://www.w3.org/2000/svg">
<path d="M43.2118 48.6798C45.8221 52.5021 52.9695 77.5488 44.2062 67.2007C42.4349 60.2709 40.7879 56.2311 41.5337 66.3928C39.3585 66.6724 41.9377 68.972 40.7569 69.9975C32.8948 37.9899 24.318 57.412 6.51187 58.9658C6.978 56.5419 8.0346 52.875 4.46093 55.4853C0.762974 52.5953 4.86488 49.6742 0.980469 47.499C2.09918 46.0074 5.79713 43.1795 4.27444 46.7532C35.7848 38.425 19.4392 32.4585 5.73499 13.8755C11.5461 14.7456 4.52306 9.18312 5.45532 8.77914C14.1875 7.47398 3.12467 8.21979 15.3062 0.761719C16.9843 1.35215 19.8121 3.80709 16.3938 3.40311C16.456 7.59828 21.9563 9.92894 22.236 13.5337C20.8687 17.5735 25.6853 13.2851 26.9594 17.1384C28.855 19.5934 32.8016 22.5766 33.9514 26.2435C19.1595 48.9906 101.385 -4.86291 80.2536 16.7034C72.1429 21.3336 74.4735 20.6188 81.6209 18.8165C95.6358 20.9917 33.2056 38.5804 43.1497 48.6798H43.2118ZM37.2453 47.3747C37.4318 47.5301 37.5872 47.3747 37.6804 47.2504C37.525 47.2193 37.3075 47.1882 37.2453 47.3747ZM39.8246 60.7992C39.8246 60.7992 39.6381 60.9235 39.4828 61.0478C39.7624 61.141 40.2597 60.9857 39.8246 60.7992ZM40.0421 62.9123C39.2342 64.5593 40.5083 64.6836 41.2851 64.9944C40.9122 64.2175 41.1609 63.1299 40.0421 62.9123ZM38.8302 49.8296C35.7538 44.9508 40.5083 56.9459 41.0055 59.494C43.1807 56.7905 39.5139 52.6886 38.8302 49.8296ZM26.6798 25.1248C26.4312 26.0881 26.6798 26.4299 28.1403 26.9893C28.2957 25.7152 27.3013 25.5598 26.6798 25.1248ZM31.9004 35.8768C30.4709 35.6904 30.1602 33.7637 28.8861 34.9446C30.0669 36.374 30.1602 37.4617 31.9004 35.8768ZM32.6152 38.829C32.8016 38.7357 32.957 38.6114 33.1434 38.425C32.8948 38.1764 32.7705 38.6736 32.6152 38.829ZM29.0104 33.6083C28.6375 33.3908 28.42 33.5151 28.451 33.9501C28.6375 33.8258 28.824 33.7326 29.0104 33.6083ZM28.6064 19.7176C27.208 20.4324 28.4821 17.5113 26.2447 18.63C24.6909 22.5766 36.1266 29.8793 28.6064 19.7176ZM24.1316 38.6114C23.5101 39.9788 27.7674 38.2075 24.6288 37.182C24.1937 37.3063 23.883 37.617 24.1316 38.6114ZM41.5648 36.9955C41.7513 38.6425 44.5791 35.6904 45.9464 35.6904C49.1161 30.6251 42.9943 35.1621 41.5648 36.9955ZM50.9806 30.8426C49.6133 31.0601 48.65 31.6195 47.8731 32.7071C50.328 34.5095 51.4468 33.7637 50.9806 30.8426ZM58.8427 27.1446C58.7806 27.3311 58.7184 27.5486 58.967 27.5797C59.1535 27.3933 59.0602 27.2068 58.8427 27.1446ZM73.4481 21.3646C70.6824 19.3758 55.3933 28.9159 62.5406 26.5853C65.8657 24.1614 69.7812 23.2292 73.4481 21.3646ZM75.064 22.2658C75.064 22.2658 75.2504 22.4212 75.4058 22.5766C75.5301 22.2037 75.2504 21.8308 75.064 22.2658ZM80.005 19.5312C79.166 20.1527 77.8297 20.2149 77.6122 21.4579C79.6321 21.8308 79.6632 20.4635 80.005 19.5312Z" fill="white"/>
</svg>
