<svg width="260" height="372" viewBox="0 0 260 372" fill="none" xmlns="http://www.w3.org/2000/svg">
<path d="M354.941 180.352C331.964 210.923 302.962 237.899 281.487 270.221C250.099 299.784 226.12 336.398 197.324 368.549C145.345 393.805 276.98 231.19 285.596 219.491C258.156 245.879 213.011 278.495 198.989 311.204C174.111 335.592 181.078 361.22 147.716 324.204C142.929 311.343 139.35 312.8 155.611 301.256C162.667 289.511 177.293 284.243 185.099 267.308C193.436 260.32 187.235 258.073 188.899 247.816C207.605 232.646 234.309 181.716 189.533 233.886C164.066 256.121 138.614 289.635 119.613 313.807C117.094 326.698 100.215 307.888 110.525 302.713C108.051 304.061 105.944 310.615 103.352 306.199C102.94 316.968 96.503 302 93.1742 300.915C93.7045 299.056 98.1969 300.234 95.6929 297.677C99.2868 295.523 89.9338 294.144 84.6313 285.39C115.695 265.913 142.164 237.078 161.901 203.005C143.74 225.488 120.276 242.377 99.1985 262.225C86.7965 262.04 78.6365 282.864 67.9431 261.079C73.4224 254.308 88.0632 256.988 79.1668 243.895C86.8849 244.236 90.0369 235.249 96.2821 230.059C95.7666 228.742 86.9438 220.855 87.2973 220.189C88.019 222.466 87.8423 222.079 86.3546 223.489C69.7843 206.832 79.6528 190.346 54.952 220.638C49.5317 230.663 36.7025 239.774 33.1823 223.334C41.519 203.393 70.1378 196.73 67.2067 171.861C80.5219 162.688 93.3363 149.193 103.794 135.371C183.111 56.7676 166.909 67.3194 97.7256 128.662C89.6392 130.398 47.3075 175.224 32.814 201.394C30.1333 199.875 24.3742 188.626 21.4726 195.506L6.21312 179.655C11.3094 176.076 3.0169 170.684 0.46875 167.817C23.4905 146.59 54.8636 128.198 80.0653 98.9748C94.6914 71.6423 125.107 71.5649 136.817 40.9166C152.842 46.7581 181.785 19.7045 198.62 0.382812C200.771 6.968 247.315 38.7164 226.753 45.0846C221.76 52.2122 199.107 73.1453 212.436 68.8223C223.307 64.9177 236.15 40.5293 245.931 57.3409C251.321 72.7734 217.061 68.2955 226.68 88.8103C214.602 92.1107 210.522 108.922 198.635 115.988C204.748 119.474 208.548 124.665 211.509 114.733C222.806 105.08 215.25 98.7578 230.877 101.919C235.944 102.368 235.93 90.2823 239.037 90.0499C240.746 94.4349 249.274 98.5719 252.205 96.7435C257.92 105.328 248.876 115.569 241.527 117.336C241.232 124.665 237.417 124.231 239.214 129.406C244.089 117.847 246.019 117.599 254.385 123.689C262.206 122.79 264.843 115.647 265.211 126.106C253.369 146.652 270.926 130.661 281.398 123.394C289.72 115.26 302.461 107.373 305.201 124.742C296.525 137.339 276.184 134.659 283.858 151.501C281.634 154.058 282.739 158.551 279.322 160.24C276.022 162.828 275.05 164.3 274.711 168.375C279.277 171.319 270.764 169.568 276.243 174.883C282.297 180.724 272.973 184.489 276.788 177.269C272.045 173.752 275.742 177.997 272.856 180.166C263.429 179.686 270.72 183.761 265.668 186.194C266.404 186.535 262.516 184.97 265.668 189.479C226.002 237.217 313.331 153.702 322.832 143.754L355 180.399L354.941 180.352ZM252.544 207.204C253.089 206.77 253.575 206.538 254.032 206.445C252.264 205.949 251.911 206.011 252.544 207.204ZM153.446 184.799C153.505 185.434 153.829 185.946 154.256 186.442C154.698 185.682 153.903 185.31 153.446 184.799ZM155.67 178.477C155.214 177.191 154.757 175.905 154.418 174.991C153.343 176.169 153.814 178.09 155.67 178.477ZM154.904 167.507C153.829 168.979 152.606 169.15 151.104 170.73C153.49 171.179 154.138 169.413 154.904 167.507ZM188.634 157.529C188.634 157.529 188.634 157.389 188.634 157.265C188.634 157.405 188.634 157.498 188.634 157.529ZM186.101 158.644C184.834 158.241 185.615 159.589 186.322 159.667L186.101 158.644ZM181.358 143.026C179.87 142.685 180.135 145.149 180.769 146.59C181.873 146.202 182.949 143.072 181.358 143.026ZM179.708 164.532C179.119 164.176 179.237 165.307 179.708 165.23V164.532ZM176.703 169.568C177.808 166.702 177.69 166.655 175.083 165.772C175.628 167.058 175.982 167.879 176.703 169.568ZM177.926 165.57C177.499 165.834 177.514 166.237 177.602 166.732C178.633 166.965 178.103 166.221 177.926 165.57ZM172.844 147.519L173.375 148.155C177.16 144.761 174.906 142.422 172.844 147.519ZM172.815 147.581C172.403 147.969 171.961 149.332 171.607 150.138C172.152 149.317 173.964 148.464 172.815 147.581ZM105.561 209.575V209.482C105.561 209.482 105.561 209.544 105.561 209.575ZM179.929 71.224C179.414 70.7591 179.207 71.3015 178.957 71.7353C179.443 72.2156 179.62 71.5804 179.929 71.224ZM181.814 95.8448C185.173 94.7137 186.822 90.1893 189.267 87.9426C186.793 90.5922 184.318 93.2418 181.814 95.8448ZM188.914 59.4946L185.158 61.3075C184.804 64.019 189.488 61.4314 188.914 59.4946ZM181.417 142.948L182.08 143.134C182.183 142.189 181.903 142.313 181.417 142.948ZM193.789 133.373C193.789 132.675 194.128 131.234 193.141 131.095C193.141 131.792 192.788 133.233 193.789 133.373ZM193.392 121.907C192.655 122.898 191.433 124.014 191.492 125.285C192.199 124.231 192.832 123.1 193.392 121.907ZM195.483 117.305C195.601 117.165 195.719 117.026 195.851 116.902C195.601 117.041 195.454 117.134 195.483 117.305ZM190.578 86.5481C195.13 84.007 200.683 76.6626 203.216 73.9355C203.216 72.696 193.686 83.5886 190.578 86.5481ZM96.9302 215.478C97.1511 214.905 97.3426 214.409 97.5193 213.975C97.1806 214.533 96.4736 214.781 96.9302 215.478ZM168.013 153.469C165.598 153.469 165.583 155.081 165.789 156.615C166.909 155.871 167.439 154.678 168.013 153.469ZM170.841 172.218L169.913 169.491C168.897 169.955 169.781 172.001 170.841 172.218ZM251.38 208.289C250.865 208.242 250.511 208.413 250.556 209.126C250.835 208.847 251.101 208.568 251.38 208.289ZM279.734 143.072C279.646 143.227 279.219 143.553 279.44 143.568C280.043 143.847 279.911 143.491 279.734 143.072ZM234.574 134.86C235.959 135.17 236.931 132.025 238.05 130.987C235.841 130.01 237.535 133.574 234.574 134.86ZM220.022 145.381C227.504 144.839 232.218 140.206 234.53 134.845C225.104 132.815 231.098 138.904 225.531 140.02C225.604 139.973 226.017 140.841 226.031 140.872C223.94 138.099 223.66 141.523 224.617 143.46C221.186 141.864 220.965 142.22 220.022 145.396V145.381ZM206.132 159.744C206.353 159.388 206.574 159.016 206.795 158.66C206.029 158.381 205.882 158.66 206.132 159.744ZM203.481 161.433C204.453 162.177 204.88 161.914 205.411 160.876C204.556 160.473 203.687 160.101 203.481 161.433ZM178.78 185.496C176.689 206.275 208.415 154.786 201.007 166.376C191.742 171.365 184.731 180.507 178.78 185.496ZM205.308 71.224C205.484 71.038 206.309 70.8211 206.265 70.7746C206.206 69.7675 205.72 70.9141 205.308 71.224ZM206.559 41.0406C205.97 40.4828 205.146 41.9082 206.088 41.7533C206.235 41.6758 206.397 41.2885 206.559 41.0406ZM210.08 38.2825C210.08 38.2825 209.977 38.2515 209.962 38.298H210.08V38.2825ZM171.445 46.6496L175.245 43.7366C174.538 41.7688 172.049 46.4482 171.445 46.6496ZM123.03 87.3228C115.18 98.5874 122.043 89.74 127.861 85.2156C146.965 68.0321 135.521 76.74 123.03 87.3228ZM145.89 76.9105C143.106 76.802 143.784 81.063 143.106 82.6435C145.404 80.3399 146.332 78.4289 145.89 76.9105ZM149.94 63.4147C146.479 64.2204 138.319 72.1072 142.488 73.0059C145.08 70.1394 147.923 67.3039 149.94 63.4147ZM155.744 61.3229C155.611 60.2073 169.354 49.1287 160.266 53.3123C158.425 55.7139 148.747 62.3921 155.744 61.3229ZM155.773 61.4314C154.713 62.4696 154.58 62.9964 155.744 63.7401C156.127 62.9034 156.304 62.1752 155.773 61.4314ZM171.151 46.944C167.645 46.8045 165.936 49.9809 163.801 52.4136C167.144 53.5602 170.164 50.6472 171.151 46.944ZM122.574 217.121C122.397 217.369 122.647 217.679 122.809 217.725C123.192 217.555 122.736 217.26 122.574 217.121ZM125.991 214.471C126.389 213.015 122.868 212.287 124.091 213.79C124.739 214.068 125.358 214.254 125.991 214.471ZM132.133 208.382C132.265 208.49 132.413 208.676 132.516 208.692C132.884 208.537 132.162 207.762 132.133 208.382ZM149.896 192.376C149.337 192.934 147.996 193.228 149.263 194.003L149.896 192.376ZM152.533 190.532C150.073 188.735 149.248 189.912 149.97 192.252C152.165 193.399 152.091 191.632 152.533 190.532ZM154.286 186.535C154.006 187.821 151.222 191.539 154.374 190.935C155.714 189.246 157.128 187.061 154.286 186.535ZM163.845 158.164C159.706 157.777 159.411 165.369 155.42 167.058C159.294 165.276 160.899 160.984 163.845 158.164ZM159.367 182.754C157.467 180.988 157.187 184.644 157.084 186.751C159.662 186.751 159.986 185.187 159.367 182.754ZM166.113 178.446C176.527 166.81 161.032 174.836 159.411 182.692C163.094 185.915 161.709 178.803 166.113 178.446ZM163.845 199.442C164.257 198.667 164.64 197.877 165.038 197.102C164.449 197.613 164.11 198.589 163.845 199.442ZM158.204 219.306C159.411 220.22 160.663 215.757 158.955 216.362L158.204 219.306ZM138.923 240.208C137.377 240.797 136.066 241.308 134.755 241.804C135.874 244.965 138.084 242.578 138.923 240.208ZM117.36 300.621C117.36 300.621 117.345 300.683 117.33 300.714L117.36 300.621ZM172.815 248.59C172.815 248.59 172.727 248.575 172.727 248.59H172.815ZM227.342 250.295C225.855 252.092 225.133 253.642 225.221 255.857C228.506 256.229 227.033 253.223 227.342 250.295ZM241.188 239.479L240.569 244.345C243.486 241.897 242.322 240.688 241.188 239.479ZM241.203 239.34C249.893 239.03 255.122 228.959 261.588 223.381C286.097 197.582 250.997 228.339 241.203 239.34ZM278.04 215.215C275.359 215.137 276.391 219.244 275.86 220.762C278.85 217.415 278.865 217.415 278.04 215.215ZM280.853 202.169C276.449 203.625 270.307 210.799 274.491 211.45C276.729 208.661 279.204 205.903 280.853 202.169ZM300.193 186.07L303.625 183.312C302.859 181.375 300.782 185.837 300.193 186.07ZM293.285 191.57C296.201 192.887 299.456 189.649 299.928 186.364C296.584 186.194 295.156 189.262 293.285 191.57ZM286.23 200.154C286.127 199.023 298.263 188.44 289.971 192.422C288.292 194.778 279.646 201.223 286.23 200.154ZM286.259 200.263C285.935 200.712 285.42 201.27 285.464 201.518C286.318 203.424 287.187 201.363 286.259 200.263ZM304.744 210.768C304.567 211.078 304.17 211.713 304.788 211.651C305.157 211.264 305.436 210.908 304.744 210.768ZM309.443 201.595C309.178 203.873 311.475 201.983 312.683 201.921C313.965 198.016 310.798 201.564 309.443 201.595ZM329.018 183.42C328.444 182.847 327.692 184.148 328.591 184.055C328.738 183.993 328.871 183.637 329.018 183.42ZM336.412 178.865C336.412 178.865 336.309 178.818 336.294 178.865H336.412Z" fill="#F1F5F7"/>
</svg>
