<svg width="120" height="120" viewBox="0 0 120 120" fill="none" xmlns="http://www.w3.org/2000/svg">
<path d="M44.2491 84.125L59.9991 74.625L75.7491 84.25L71.6241 66.25L85.4991 54.25L67.2491 52.625L59.9991 35.625L52.7491 52.5L34.4991 54.125L48.3741 66.25L44.2491 84.125ZM59.9991 86.375L39.2491 98.875C38.3324 99.4583 37.3741 99.7083 36.3741 99.625C35.3741 99.5417 34.4991 99.2083 33.7491 98.625C32.9991 98.0417 32.4158 97.3125 31.9991 96.4375C31.5824 95.5625 31.4991 94.5833 31.7491 93.5L37.2491 69.875L18.8741 54C18.0408 53.25 17.5199 52.3958 17.3116 51.4375C17.1033 50.4792 17.1658 49.5417 17.4991 48.625C17.8324 47.7083 18.3324 46.9583 18.9991 46.375C19.6658 45.7917 20.5824 45.4167 21.7491 45.25L45.9991 43.125L55.3741 20.875C55.7908 19.875 56.4366 19.125 57.3116 18.625C58.1866 18.125 59.0824 17.875 59.9991 17.875C60.9158 17.875 61.8116 18.125 62.6866 18.625C63.5616 19.125 64.2074 19.875 64.6241 20.875L73.9991 43.125L98.2491 45.25C99.4158 45.4167 100.332 45.7917 100.999 46.375C101.666 46.9583 102.166 47.7083 102.499 48.625C102.832 49.5417 102.895 50.4792 102.687 51.4375C102.478 52.3958 101.957 53.25 101.124 54L82.7491 69.875L88.2491 93.5C88.4991 94.5833 88.4158 95.5625 87.9991 96.4375C87.5824 97.3125 86.9991 98.0417 86.2491 98.625C85.4991 99.2083 84.6241 99.5417 83.6241 99.625C82.6241 99.7083 81.6658 99.4583 80.7491 98.875L59.9991 86.375Z" fill="white"/>
</svg>
