<svg width="448" height="699" viewBox="0 0 448 699" fill="none" xmlns="http://www.w3.org/2000/svg">
<path d="M467.077 408.703C502.256 462.19 430.471 318.527 426.437 302.049C394.271 215.13 539.183 506.594 558.631 567.997C566.923 591.211 598.516 627.029 593.986 649.624C583.981 639.268 581.369 622.343 567.262 620.258C569.587 633.396 598.452 681.068 568.591 655.198C573.627 690.021 556.149 634.614 546.198 636.194C562.919 717.298 403.767 371.962 375.902 313.482C414.047 429.589 433.727 555.386 488.507 661.878C478.532 653.839 476.278 641.318 468.339 629.947C478.726 654.326 489.655 698.335 464.182 648.5C458.503 656.858 473.07 673.214 475.946 682.484C468.919 690.216 468.45 680.098 463.121 677.806C464.846 711.389 446.959 676.641 439.303 664.862C431.973 669.541 455.08 716.562 435.506 690.831C415.657 618.741 375.227 560.2 342.718 497.159C437.682 644.157 343.082 454.66 297.6 396.796C269.287 348.266 287.551 401.464 302.04 424.37C310.819 440.633 324.357 446.136 325.334 464.534C356.511 524.39 305.826 447.77 292.8 423.765C298.792 441.498 303.455 460.105 308.077 478.451C322.855 519.789 322.871 564.541 330.721 605.824C329.315 615.209 342.529 639.291 331.283 641.462C325.358 631.784 327.863 622.098 316.352 618.33C314.323 629.918 324.266 659.684 305.573 638.192C303.486 640.446 302.603 651.628 300.037 641.121C298.244 629.412 289.284 610.743 291.056 634.412C293.14 641.558 307.485 645.575 298.678 652.225C281.982 638.91 293.062 638.434 268.075 620.338C268.858 612.107 263.917 616.536 261.787 620.355C259.591 607.495 255.155 615.096 247.681 602.849C230.15 581.129 202.562 527.58 179.537 519.77C209.039 571.165 251.292 611.841 279.47 662.558C236.928 627.631 209.593 549.137 164.28 524.617C106.804 455.701 42.089 381.032 0.158592 300.471C4.58423 296.888 11.9366 309.402 16.4844 312.351C20.9736 304.003 4.9299 292.628 7.38248 285.651C10.7718 284.265 10.7799 290.696 14.2448 288.373C11.0194 256.95 26.1916 287.123 35.2593 292.801C39.7877 279.742 31.6299 275.648 28.582 263.741C41.813 263.957 250.54 534.426 168.423 450.863C155.864 437.752 139.882 405.005 118.006 394.963C150.524 452.937 197.587 504.189 236.594 556.38C253.807 577.744 292.394 651.602 273.796 587.148C254.037 560.7 164.361 439.001 220.372 507.056C325.989 678.623 209.583 350.038 190.073 277.979C169.795 234.721 168.204 190.191 189.14 262.076C204.274 298.922 213.778 339.319 232.492 374.993C240.568 359.221 217.144 329.363 216.099 311.534C210.467 293.505 195.145 263.38 197.482 251.329C194.935 241.409 173.596 221.572 182.357 213.203C217.612 260.005 168.149 181.129 206.504 204.189C203.183 175.99 217.458 219.128 226.458 215.703C205.211 156.554 251.862 236.953 262.033 255.287C292.008 294.853 353.77 438.43 324.76 321.547C329.288 345.215 342.949 362.222 347.047 381.646C342.326 396.317 377.318 453.786 368.887 433.399C332.411 294.228 303.02 147.901 233.338 24.3811C245.048 31.9194 245.773 44.4202 255.165 54.7868C237.289 5.43564 312.864 156.437 321.399 173.232C317.695 138.72 294.902 114.002 283.7 83.7656C276.293 60.228 263.162 29.093 242.831 0.0415979C328.577 93.9599 390.299 277.927 467.214 408.614L467.077 408.703ZM295.63 135.398C295.621 137.591 295.611 138.735 295.587 139.837C297.524 141.418 296.983 137.345 295.63 135.398ZM196.321 211.044C198.789 217.841 201.096 224.779 203.415 231.623C209.7 232.383 197.887 215.889 196.321 211.044ZM219.425 254.917L212.08 242.036C209.746 245.599 213.282 247.817 214.154 250.325C214.373 255.595 217.199 254.249 219.412 254.876L219.425 254.917ZM212.901 257.062C212.893 255.467 212.625 254.092 211.32 252.951C211.839 254.339 212.345 255.685 212.901 257.062ZM204.559 263.884C204.327 264.322 204.019 264.784 204.032 264.826C205.182 266.517 206.115 265.037 204.559 263.884ZM209.055 272.552C207.965 271.572 205.973 269.553 207.392 272.756C207.974 273.166 208.957 273.678 209.055 272.552ZM48.3656 301.77C48.8197 304.912 50.8591 304.727 52.9448 305.211C53.9773 300.78 49.8037 297.713 48.3656 301.77ZM47.4786 311.63C49.5417 307.468 44.3517 300.387 40.2068 301.464L47.4786 311.63ZM90.5328 421.904L86.7113 416.035C86.0034 419.406 89.2108 423.324 90.5328 421.904ZM97.4145 435.798C98.5178 433.291 97.2873 430.165 93.723 426.421C94.9013 429.38 96.0795 432.34 97.4145 435.798ZM116.727 434.556C115.765 432.456 114.256 431.41 112.202 431.418C113.517 432.327 114.844 433.278 116.727 434.556ZM116.375 453.829C113.415 451.612 102.88 433.166 103.703 442.579C107.598 445.414 112.778 455.6 116.375 453.829ZM151.832 484.28C159.95 482.364 141.434 464.831 137.908 460.557C129.597 461.987 149 478.418 151.832 484.28ZM118.964 457.349C118.456 465.538 128.94 473.234 133.204 480.378C151.055 494.881 125.714 462.981 118.964 457.349ZM169.922 503.725C171.631 504.191 170.3 499.044 168.965 500.422L169.922 503.725ZM211.734 543.262C210.943 538.264 208.665 534.556 204.89 532.231C206.585 536.442 208.404 540.523 211.734 543.262ZM252.597 598.473C252.459 595.551 251.063 593.207 251.033 596.639C251.163 597.054 251.644 597.404 252.597 598.473ZM256.879 604.106C256.675 601.889 255.036 602.04 255.903 604.14C255.929 604.223 256.428 604.111 256.879 604.106ZM311.654 596.996C312.632 598.012 313.013 615.822 315.834 606.357C313.511 600.153 318.194 600.002 311.654 596.996ZM319.473 596.224C317.249 598.566 317.748 604.204 321.323 601.71C322.971 599.366 321.524 597.905 319.473 596.224ZM310.279 350.558C312.991 356.214 315.508 358.677 317.828 357.946C315.037 355.22 312.665 352.91 310.279 350.558ZM302.395 338.577C303.024 338.744 306.879 347.203 307.607 344.419C306.125 342.194 305.856 338.856 302.395 338.577ZM234.493 344.754C234.444 340.024 232.705 336.328 229.287 333.571C229.858 338 232.119 341.394 234.493 344.754ZM242.334 393.065C243.99 392.316 240.69 389.02 240.289 390.88L242.334 393.065ZM257.753 439.448C258.241 432.633 245.643 402.928 247.983 420.167C250.334 424.629 253.448 447.464 257.753 439.448ZM241.716 426.656C236.739 433.059 244.976 448.123 248.025 456.243C254.805 463.279 243.599 432.77 241.716 426.656ZM250.631 463.087C251.74 468.441 252.599 473.783 253.62 479.119C259.276 485.46 253.143 461.658 250.631 463.087ZM266.223 476.293C267.839 473.458 267.826 473.416 266.3 470.657C266.255 472.998 266.239 474.646 266.223 476.293ZM261.347 500.274C259.648 500.627 260.537 505.411 263.406 506.424C263.406 506.424 261.384 500.263 261.347 500.274ZM259.88 495.352C258.87 487.96 258.82 487.93 255.235 487.781C257.05 490.54 258.421 492.937 259.88 495.352ZM289.79 474.716C309.7 525.434 277.876 384.708 267.696 381.114C215.828 289.628 279.476 435.669 289.79 474.716ZM314.15 382.463C313.261 379.64 312.647 377.689 312.033 375.738C311.767 378.377 312.472 380.619 314.15 382.463ZM331.988 386.339C327.383 379.941 326.556 368.294 319.146 366.839C323.974 373.03 327.451 386.17 331.988 386.339ZM425.052 639.053C424.362 638.038 423.673 637.023 423.007 635.955C423.285 637.099 423.862 638.149 425.052 639.053ZM430.389 627.518C427.52 631.341 431.55 642.71 436.475 644.765L430.389 627.518ZM412.874 469.651L415.028 479.239C416.579 476.195 415.03 469.703 412.874 469.651ZM393.634 440.667C392.578 438.49 391.536 436.354 389.993 433.281C390.317 436.403 391.531 438.865 393.634 440.667ZM343.552 410.667C341.618 404.524 339.404 391.214 333.497 391.659C336.551 398.225 339.978 404.538 343.552 410.667ZM410.035 448.736C408.146 450.487 408.458 454.921 410.972 462.038C410.679 457.841 410.374 453.603 410.035 448.736ZM333.849 413.037C334.547 425.318 344.555 434.898 350.199 444.208C355.576 440.508 339.688 418.91 333.849 413.037ZM396.329 412.764C398.58 417.302 403.238 446.222 405.675 436.056C402.37 429.477 401.197 415.292 396.329 412.764ZM394.822 406.668C397.752 396.895 389.59 380.895 387.609 369.109C374.386 338.596 389.785 394.977 394.822 406.668ZM371.573 371.874C384.897 409.244 375.736 363.538 369.889 348.224C361.365 340.093 372.234 367.834 371.573 371.874ZM551.127 589.247L559.875 606.979C562.201 602.871 557.97 599.23 557.092 596.176C556.505 589.608 553.549 590.538 551.089 589.259L551.127 589.247ZM557.936 585.006C557.349 587.974 559.773 598.16 562.696 592.678C562.929 588.453 560.79 586.754 557.936 585.006ZM451.288 454.733C449.913 456.9 453.375 463.064 456.471 464.143C456.471 464.143 451.326 454.721 451.288 454.733ZM438.755 435.82C441.878 439.993 444.605 443.56 447.294 447.139C444.078 439.361 441.232 435.588 438.755 435.82ZM441.707 406.513C442.795 410.231 443.53 412.828 444.278 415.467C444.454 412.279 443.597 409.294 441.707 406.513ZM422.149 396.517C427.504 405.69 428.184 419.483 436.966 424.384C431.222 415.151 427.833 399.154 422.149 396.517ZM396.622 338.67C395.613 354.545 410.943 375.68 419.476 390.378C416.178 373.622 403.827 355.29 396.622 338.67ZM404.852 336.719C425.328 383.746 416.261 341.34 400.147 319.676C391.925 315.511 404.149 333.7 404.852 336.719ZM357.448 315.229L357.491 310.79C355.773 308.73 355.824 315.558 357.448 315.229ZM329.945 248.879C329.377 242.761 328.646 236.65 325.852 230.777C325.357 237.046 326.712 243.052 329.945 248.879ZM312.113 166.208C323.789 203.96 333.749 243.712 347.94 281.357C359.101 267.807 327.275 193.602 312.113 166.208ZM326.373 183.94C325.388 180.417 324.079 177.042 321.799 174.11C323.244 177.396 324.815 180.689 326.373 183.94ZM381.017 280.848C379.865 281.895 384.323 287.564 384.079 284.173L381.017 280.848ZM359.421 280.847C363.571 282.141 353.5 264.779 359.057 260.476C336.778 211.644 351.836 252.301 359.421 280.847ZM346.976 193.333C349.281 200.135 353.008 205.441 356.858 210.617C354.985 203.359 351.691 197.598 346.976 193.333ZM366.271 257.521C367.786 229.396 332.752 188 324.169 159.814C317.554 156.831 350.655 237.571 366.271 257.521ZM291.289 88.4034C290.524 90.2866 293.329 92.1413 292.788 90.0303C292.354 89.4368 291.797 88.9734 291.289 88.4034Z" fill="white"/>
</svg>
