<svg width="262" height="206" viewBox="0 0 262 206" fill="none" xmlns="http://www.w3.org/2000/svg">
<path d="M187.824 36.667C208.28 67.7698 166.538 -15.7705 164.192 -25.3526C145.487 -75.8964 229.754 93.5913 241.063 129.298C245.885 142.796 264.256 163.625 261.622 176.764C255.804 170.742 254.285 160.899 246.082 159.687C247.434 167.327 264.219 195.049 246.855 180.005C249.783 200.255 239.62 168.035 233.833 168.954C243.557 216.117 151.009 15.302 134.805 -18.7046C156.986 48.8125 168.43 121.964 200.285 183.89C194.485 179.215 193.174 171.934 188.558 165.321C194.598 179.498 200.953 205.089 186.14 176.11C182.838 180.97 191.309 190.482 192.981 195.872C188.895 200.368 188.622 194.485 185.523 193.151C186.527 212.681 176.125 192.474 171.673 185.625C167.411 188.346 180.847 215.688 169.465 200.726C157.923 158.805 134.412 124.763 115.508 88.1047C170.731 173.585 115.72 63.3912 89.272 29.7433C72.8081 1.52272 83.4287 32.4578 91.8543 45.7775C96.9592 55.2342 104.831 58.4343 105.4 69.133C123.529 103.939 94.0555 59.3847 86.4812 45.4256C89.9655 55.7372 92.677 66.5573 95.3647 77.2257C103.958 101.264 103.967 127.288 108.532 151.294C107.714 156.751 115.399 170.755 108.859 172.017C105.413 166.389 106.87 160.758 100.177 158.566C98.9965 165.305 104.779 182.614 93.9088 170.116C92.6947 171.427 92.1815 177.929 90.6893 171.819C89.6468 165.01 84.4364 154.154 85.4669 167.918C86.6789 172.073 95.0206 174.409 89.8988 178.276C80.1905 170.533 86.6335 170.257 72.1034 159.734C72.5586 154.948 69.6855 157.523 68.4468 159.744C67.1699 152.266 64.5902 156.686 60.2439 149.564C50.0498 136.933 34.0072 105.794 20.618 101.253C37.7736 131.14 62.344 154.793 78.7296 184.285C53.9912 163.974 38.0957 118.33 11.7458 104.072C-21.6765 63.9964 -59.3088 20.5765 -83.6915 -26.2703C-81.1179 -28.3537 -76.8425 -21.0768 -74.1979 -19.3621C-71.5874 -24.2163 -80.9169 -30.8312 -79.4907 -34.8882C-77.5198 -35.6941 -77.5151 -31.9548 -75.5003 -33.3053C-77.3759 -51.5782 -68.5532 -34.0324 -63.2803 -30.7306C-60.647 -38.3246 -65.3907 -40.7051 -67.1631 -47.629C-59.4692 -47.5033 61.9067 109.776 14.1551 61.1831C6.85216 53.559 -2.44156 34.5166 -15.1628 28.6772C3.74685 62.3893 31.114 92.1928 53.797 122.542C63.8063 134.965 86.2446 177.914 75.4301 140.434C63.9402 125.054 11.7931 54.2857 44.3639 93.8597C105.781 193.627 38.0898 2.55298 26.7445 -39.3499C14.9532 -64.5042 14.0279 -90.3986 26.2022 -48.5975C35.0024 -27.1712 40.5294 -3.68007 51.4114 17.0646C56.1075 7.89285 42.4868 -9.46952 41.879 -19.8374C38.6037 -30.3209 29.694 -47.8393 31.0528 -54.8465C29.5722 -60.6152 17.1633 -72.1508 22.2576 -77.0172C42.7585 -49.8018 13.996 -95.6682 36.2995 -82.2588C34.368 -98.657 42.6692 -73.5716 47.9027 -75.5635C35.5474 -109.959 62.6751 -63.2064 68.5896 -52.5453C86.0203 -29.5371 121.935 53.9537 105.066 -14.0147C107.699 -0.251564 115.643 9.63807 118.026 20.9331C115.281 29.4643 135.629 62.8829 130.726 51.028C109.515 -29.9005 92.4239 -114.991 51.9034 -186.818C58.7128 -182.434 59.1347 -175.165 64.5959 -169.137C54.201 -197.835 98.1481 -110.027 103.111 -100.26C100.958 -120.329 87.7033 -134.703 81.1893 -152.286C76.8818 -165.973 69.2465 -184.078 57.4238 -200.972C107.286 -146.358 143.177 -39.3799 187.903 36.6154L187.824 36.667ZM88.1267 -122.261C88.1214 -120.986 88.1154 -120.321 88.1019 -119.68C89.2283 -118.761 88.9135 -121.129 88.1267 -122.261ZM30.3779 -78.2728C31.8132 -74.3204 33.1547 -70.2854 34.5029 -66.3057C38.158 -65.8641 31.2886 -75.4553 30.3779 -78.2728ZM43.8128 -52.7601L39.5419 -60.2507C38.1847 -58.1787 40.241 -56.8891 40.748 -55.4303C40.8751 -52.3662 42.5185 -53.1487 43.8052 -52.7843L43.8128 -52.7601ZM40.0193 -51.5132C40.0146 -52.4403 39.8585 -53.2402 39.0996 -53.9034C39.4015 -53.0963 39.6957 -52.3134 40.0193 -51.5132ZM35.1683 -47.5458C35.0332 -47.291 34.8546 -47.0225 34.8622 -46.9984C35.5305 -46.0149 36.073 -46.8754 35.1683 -47.5458ZM37.7831 -42.5054C37.1493 -43.0753 35.9904 -44.2494 36.8158 -42.3867C37.154 -42.1482 37.726 -41.8507 37.7831 -42.5054ZM-55.6589 -25.5148C-55.3948 -23.6877 -54.2089 -23.7957 -52.996 -23.5141C-52.3956 -26.0908 -54.8226 -27.8739 -55.6589 -25.5148ZM-56.1747 -19.7811C-54.9749 -22.2015 -57.993 -26.319 -60.4033 -25.6932L-56.1747 -19.7811ZM-31.1384 44.3436L-33.3606 40.9307C-33.7723 42.8908 -31.9072 45.1692 -31.1384 44.3436ZM-27.1367 52.4229C-26.4951 50.9653 -27.2106 49.1476 -29.2833 46.97C-28.5981 48.6911 -27.913 50.4122 -27.1367 52.4229ZM-15.9063 51.7009C-16.466 50.4798 -17.3431 49.8714 -18.5377 49.876C-17.7733 50.4048 -17.0013 50.9577 -15.9063 51.7009ZM-16.1108 62.908C-17.832 61.6191 -23.9587 50.8922 -23.4799 56.366C-21.2149 58.0144 -18.2026 63.9378 -16.1108 62.908ZM4.50734 80.6152C9.22773 79.5011 -1.5394 69.306 -3.58935 66.8205C-8.42267 67.6518 2.86065 77.2069 4.50734 80.6152ZM-14.6056 64.9547C-14.9008 69.717 -8.80418 74.1922 -6.3247 78.3466C4.05542 86.7799 -10.6806 68.2297 -14.6056 64.9547ZM15.0267 91.923C16.0208 92.1938 15.2464 89.2008 14.47 90.0022L15.0267 91.923ZM39.3408 114.914C38.8807 112.008 37.5562 109.851 35.3606 108.499C36.3466 110.948 37.4044 113.321 39.3408 114.914ZM63.1029 147.019C63.0226 145.32 62.2109 143.957 62.1931 145.953C62.2691 146.194 62.5485 146.398 63.1029 147.019ZM65.5928 150.295C65.4741 149.006 64.521 149.093 65.0249 150.314C65.0401 150.363 65.3306 150.298 65.5928 150.295ZM97.4447 146.161C98.0132 146.751 98.2347 157.108 99.8753 151.604C98.5247 147.996 101.248 147.909 97.4447 146.161ZM101.992 145.711C100.698 147.073 100.988 150.352 103.067 148.901C104.026 147.539 103.184 146.689 101.992 145.711ZM96.6452 2.85571C98.2223 6.14439 99.6856 7.5764 101.035 7.15174C99.4119 5.56662 98.0323 4.22324 96.6452 2.85571ZM92.0605 -4.11162C92.426 -4.01439 94.6677 0.904579 95.0911 -0.714374C94.2294 -2.00848 94.0731 -3.94908 92.0605 -4.11162ZM52.5749 -0.519898C52.5466 -3.27015 51.5354 -5.41924 49.5479 -7.02231C49.8799 -4.44723 51.1948 -2.47329 52.5749 -0.519898ZM57.1345 27.5736C58.0977 27.1379 56.179 25.2213 55.9453 26.303L57.1345 27.5736ZM66.1012 54.5455C66.3849 50.5827 59.059 33.3087 60.4199 43.3335C61.7865 45.9279 63.5974 59.2069 66.1012 54.5455ZM56.7756 47.1069C53.8809 50.8301 58.6709 59.59 60.4439 64.3116C64.3867 68.4034 57.8705 50.6623 56.7756 47.1069ZM61.9595 68.2917C62.6045 71.405 63.1036 74.5112 63.6974 77.6142C66.9867 81.3014 63.4202 67.4606 61.9595 68.2917ZM71.026 75.971C71.9662 74.3221 71.9586 74.2979 71.071 72.6936C71.0449 74.0549 71.0355 75.013 71.026 75.971ZM68.1909 89.9163C67.2029 90.1211 67.7197 92.9033 69.3881 93.4925C69.3881 93.4925 68.2127 89.9094 68.1909 89.9163ZM67.338 87.0541C66.7505 82.7553 66.7212 82.738 64.6367 82.6512C65.6919 84.2558 66.4894 85.6497 67.338 87.0541ZM84.7306 75.054C96.3085 104.547 77.8028 22.714 71.8827 20.6241C41.7214 -32.5755 78.7329 52.3478 84.7306 75.054ZM98.8959 21.4085C98.3793 19.767 98.0222 18.6325 97.6652 17.4979C97.5102 19.0324 97.9205 20.3359 98.8959 21.4085ZM109.269 23.6624C106.591 19.9419 106.11 13.1688 101.801 12.3228C104.609 15.9229 106.631 23.5641 109.269 23.6624ZM163.386 170.616C162.985 170.026 162.584 169.436 162.197 168.815C162.359 169.481 162.694 170.091 163.386 170.616ZM166.49 163.909C164.821 166.132 167.165 172.743 170.029 173.938L166.49 163.909ZM156.305 72.1086L157.557 77.6839C158.459 75.9143 157.558 72.1387 156.305 72.1086ZM145.116 55.2543C144.503 53.9883 143.896 52.7464 142.999 50.9594C143.188 52.7748 143.893 54.2065 145.116 55.2543ZM115.993 37.8094C114.869 34.2367 113.581 26.4971 110.147 26.7556C111.922 30.5743 113.915 34.2452 115.993 37.8094ZM154.654 59.9465C153.555 60.9645 153.737 63.5428 155.198 67.6813C155.028 65.241 154.851 62.7764 154.654 59.9465ZM110.351 39.187C110.757 46.3287 116.576 51.8993 119.859 57.3132C122.985 55.162 113.746 42.6022 110.351 39.187ZM146.683 39.0285C147.992 41.6675 150.701 58.4843 152.118 52.5732C150.197 48.7473 149.514 40.4988 146.683 39.0285ZM145.807 35.4839C147.511 29.8008 142.765 20.4964 141.613 13.6428C133.924 -4.10063 142.878 28.6853 145.807 35.4839ZM132.288 15.2509C140.036 36.9819 134.709 10.4032 131.308 1.49794C126.352 -3.23 132.672 12.9012 132.288 15.2509ZM236.699 141.654L241.786 151.966C243.139 149.577 240.679 147.459 240.168 145.683C239.827 141.864 238.108 142.405 236.677 141.661L236.699 141.654ZM240.659 139.188C240.317 140.914 241.727 146.837 243.427 143.649C243.562 141.192 242.319 140.204 240.659 139.188ZM178.643 63.4338C177.843 64.6936 179.856 68.2784 181.656 68.9058C181.656 68.9058 178.664 63.427 178.643 63.4338ZM171.354 52.4357C173.17 54.8621 174.756 56.9365 176.32 59.0178C174.45 54.4948 172.795 52.3008 171.354 52.4357ZM173.071 35.3934C173.704 37.5556 174.131 39.0659 174.566 40.6004C174.669 38.7465 174.17 37.0108 173.071 35.3934ZM161.698 29.5809C164.812 34.9152 165.207 42.9356 170.314 45.7856C166.974 40.4164 165.003 31.1142 161.698 29.5809ZM146.854 -4.05767C146.267 5.17399 155.182 17.4642 160.144 26.0108C158.226 16.2675 151.044 5.6074 146.854 -4.05767ZM151.64 -5.19228C163.547 22.1542 158.274 -2.50472 148.904 -15.1026C144.123 -17.5246 151.231 -6.94729 151.64 -5.19228ZM124.074 -17.6886L124.099 -20.2699C123.1 -21.4678 123.13 -17.4975 124.074 -17.6886ZM108.081 -56.2715C107.751 -59.8288 107.326 -63.3828 105.701 -66.798C105.413 -63.1523 106.201 -59.6596 108.081 -56.2715ZM97.7118 -104.345C104.501 -82.3917 110.293 -59.2758 118.545 -37.3853C125.036 -45.2645 106.528 -88.4154 97.7118 -104.345ZM106.004 -94.034C105.431 -96.0823 104.67 -98.0448 103.344 -99.7499C104.184 -97.839 105.098 -95.9244 106.004 -94.034ZM137.779 -37.6812C137.11 -37.0726 139.702 -33.7761 139.56 -35.7477L137.779 -37.6812ZM125.221 -37.6821C127.635 -36.9294 121.779 -47.0252 125.009 -49.5277C112.054 -77.924 120.81 -54.2817 125.221 -37.6821ZM117.984 -88.5718C119.325 -84.6161 121.492 -81.5308 123.731 -78.5211C122.642 -82.7416 120.726 -86.0918 117.984 -88.5718ZM129.205 -51.246C130.086 -67.6007 109.713 -91.6727 104.722 -108.063C100.875 -109.798 120.124 -62.8473 129.205 -51.246ZM85.6021 -149.589C85.1574 -148.494 86.7885 -147.415 86.4739 -148.643C86.2218 -148.988 85.8978 -149.257 85.6021 -149.589Z" fill="white"/>
</svg>
