<svg width="21" height="20" viewBox="0 0 21 20" fill="none" xmlns="http://www.w3.org/2000/svg">
<path d="M1.76562 5.008H18.7656H1.76562ZM14.7656 19H5.76562C5.23519 19 4.72648 18.7893 4.35141 18.4142C3.97634 18.0391 3.76562 17.5304 3.76562 17V5H16.7656V17C16.7656 17.5304 16.5549 18.0391 16.1798 18.4142C15.8048 18.7893 15.2961 19 14.7656 19ZM6.68162 5V4.542C6.68162 3.6026 7.0548 2.70168 7.71905 2.03743C8.38331 1.37317 9.28423 1 10.2236 1C11.163 1 12.0639 1.37317 12.7282 2.03743C13.3925 2.70168 13.7656 3.6026 13.7656 4.542V5M8.24363 9V15V9ZM12.2956 9V15V9Z" fill="#FF6130"/>
<path d="M1.76562 5.008H18.7656M6.68162 5V4.542C6.68162 3.6026 7.0548 2.70168 7.71905 2.03743C8.38331 1.37317 9.28423 1 10.2236 1C11.163 1 12.0639 1.37317 12.7282 2.03743C13.3925 2.70168 13.7656 3.6026 13.7656 4.542V5M8.24363 9V15M12.2956 9V15M14.7656 19H5.76562C5.23519 19 4.72648 18.7893 4.35141 18.4142C3.97634 18.0391 3.76563 17.5304 3.76562 17V5H16.7656V17C16.7656 17.5304 16.5549 18.0391 16.1798 18.4142C15.8048 18.7893 15.2961 19 14.7656 19Z" stroke="white" stroke-width="1.28" stroke-linecap="round" stroke-linejoin="round"/>
</svg>
