<svg width="78" height="100" viewBox="0 0 78 100" fill="none" xmlns="http://www.w3.org/2000/svg">
<g clip-path="url(#clip0_1831_11881)">
<path d="M72.8062 9.36533L33.1292 0.167117C29.5657 -0.656937 26.0134 1.5591 25.1893 5.12257L22.7283 15.7685H6.10245C2.73942 15.7685 0 18.4967 0 21.8709V93.9088C0 97.2718 2.72829 100.011 6.10245 100.011H47.8619C51.2249 100.011 53.9644 97.2829 53.9644 93.9088V91.4589C57.4722 92.1716 60.9243 89.9778 61.7372 86.47L77.7617 17.3052C78.5858 13.7417 76.3697 10.1894 72.8062 9.36533Z" fill="#FF6130"/>
<path d="M12.3851 45.9357H12.5856L17.9642 29.0648H23.1646L15.5032 51.2809H9.45639L1.79492 29.0537H7.0065L12.374 45.9245L12.3851 45.9357Z" fill="white"/>
<path d="M25.5801 30.1223C25.5801 28.8417 26.7048 27.7949 28.0745 27.7949C29.4442 27.7949 30.5801 28.8417 30.5801 30.1223C30.5801 31.4029 29.4554 32.4608 28.0745 32.4608C26.6937 32.4608 25.5801 31.4141 25.5801 30.1223ZM25.7583 34.6101H30.3796V51.2693H25.7583V34.6101Z" fill="white"/>
<path d="M34.1543 29.0531H38.7757V37.405H38.9204C39.5441 36.0464 40.8692 34.3872 43.6643 34.3872C47.3169 34.3872 50.4126 37.2268 50.4126 42.9507C50.4126 48.6745 47.4505 51.5253 43.6532 51.5253C40.9583 51.5253 39.5663 49.9774 38.9204 48.5854H38.7089V51.258H34.1543V29.042V29.0531ZM42.1833 47.8616C44.455 47.8616 45.691 45.846 45.691 42.9395C45.691 40.0331 44.4772 38.0732 42.1833 38.0732C39.8893 38.0732 38.6755 39.9663 38.6755 42.9395C38.6755 45.9128 39.9561 47.8616 42.1833 47.8616Z" fill="white"/>
<path d="M52.7949 43.0186C52.7949 37.8738 55.9686 34.3994 60.8796 34.3994C65.2782 34.3994 68.7081 37.1945 68.7081 42.8627V44.1322H57.3606C57.3606 46.6266 58.8194 48.1522 61.1357 48.1522C62.6724 48.1522 63.864 47.4952 64.3317 46.2257L68.6078 46.5041C67.962 49.5999 65.178 51.6043 61.0577 51.6043C55.9241 51.6043 52.7949 48.3081 52.7949 43.0297V43.0186ZM64.3539 41.2591C64.3539 39.2769 62.9508 37.8404 60.9464 37.8404C58.9419 37.8404 57.4497 39.3549 57.3606 41.2591H64.3539Z" fill="white"/>
<path d="M13.0064 76.6361C7.08208 76.6361 2.60547 72.4602 2.60547 65.2219C2.60547 57.9836 7.08208 53.8076 13.0064 53.8076C18.9306 53.8076 23.4073 57.9502 23.4073 65.2219C23.4073 72.4936 18.8972 76.6361 13.0064 76.6361ZM13.0064 57.9724C9.58765 57.9724 7.37162 60.5225 7.37162 65.233C7.37162 69.9435 9.59879 72.4936 13.0064 72.4936C16.4139 72.4936 18.6411 69.9435 18.6411 65.233C18.6411 60.5225 16.4028 57.9724 13.0064 57.9724Z" fill="white"/>
<path d="M10.1557 93.6755C8.80825 93.6866 7.63898 93.4305 6.63675 92.9182C5.64566 92.3948 4.87729 91.6487 4.33163 90.6688C3.78597 89.6888 3.50758 88.5196 3.49644 87.161C3.48531 85.8581 3.74143 84.7 4.27595 83.72C4.79934 82.7289 5.55658 81.9494 6.51426 81.3926C7.48308 80.8358 8.61894 80.5463 9.93297 80.5352C10.8907 80.5352 11.7704 80.6688 12.561 80.9695C13.3517 81.2701 14.031 81.6933 14.5989 82.2612C15.1668 82.818 15.6011 83.5084 15.9129 84.2991C16.2247 85.1009 16.3806 86.0029 16.3918 86.994V88.0964L4.92183 88.1966L4.89956 85.6465L14.2203 85.5686L12.0711 86.0919C12.0711 85.5908 11.982 85.1677 11.8261 84.8225C11.6702 84.4772 11.4363 84.21 11.1356 84.0318C10.835 83.8536 10.4564 83.7646 10.0221 83.7646C9.58776 83.7646 9.22027 83.8648 8.9196 84.0541C8.61894 84.2434 8.39622 84.5107 8.24032 84.8559C8.08442 85.2011 8.00646 85.6242 8.0176 86.1254L8.03987 88.0185C8.03987 88.553 8.14009 88.9984 8.31827 89.3659C8.49644 89.7334 8.75257 89.9895 9.08664 90.1677C9.42072 90.3458 9.79934 90.4349 10.2448 90.4238C10.5566 90.4238 10.8461 90.3793 11.1022 90.2902C11.3584 90.2011 11.5811 90.0675 11.7704 89.9004C11.9486 89.7334 12.0933 89.5329 12.1824 89.2991L16.2693 89.7334C16.08 90.5129 15.7013 91.1922 15.1557 91.7824C14.5989 92.3726 13.9085 92.8291 13.0621 93.1521C12.2158 93.475 11.2581 93.6421 10.1668 93.6532L10.1557 93.6755Z" fill="white"/>
<path d="M23.1867 93.6418C22.2402 93.6418 21.3827 93.3968 20.6144 92.9068C19.846 92.4168 19.2224 91.693 18.7769 90.7131C18.3204 89.7442 18.0977 88.5416 18.0977 87.0939C18.0977 85.6017 18.3426 84.3768 18.8215 83.4191C19.3003 82.4614 19.9239 81.7376 20.6923 81.2699C21.4607 80.8021 22.2847 80.5683 23.1756 80.5794C23.7881 80.5794 24.3226 80.6796 24.7903 80.8801C25.258 81.0805 25.6478 81.3478 25.9707 81.7041C26.2936 82.0494 26.5498 82.4391 26.7279 82.8734L26.7836 79.1206V69.7554L31.4161 69.7665L31.3716 93.4859H26.8059V91.4035H26.7168C26.5275 91.86 26.2714 92.2498 25.9484 92.5839C25.6255 92.918 25.2246 93.1741 24.7569 93.3745C24.2892 93.5638 23.7658 93.6641 23.1756 93.6529L23.1867 93.6418ZM24.8348 90.0894C25.258 90.0894 25.6255 89.9669 25.9262 89.722C26.2268 89.477 26.4718 89.1318 26.65 88.6863C26.8282 88.2409 26.9061 87.7175 26.9173 87.105C26.9173 86.4814 26.8393 85.9469 26.6611 85.5015C26.483 85.056 26.2491 84.7108 25.9484 84.4658C25.6366 84.2208 25.2803 84.0984 24.8571 84.0984C24.434 84.0984 24.0776 84.2208 23.7769 84.4547C23.4763 84.6997 23.2536 85.0338 23.0865 85.4792C22.9306 85.9246 22.8527 86.4592 22.8415 87.0828C22.8415 87.6952 22.9195 88.2298 23.0754 88.6752C23.2313 89.1206 23.4651 89.4658 23.7547 89.7108C24.0553 89.9447 24.4117 90.0672 24.8348 90.0672V90.0894Z" fill="white"/>
<path d="M37.9505 93.6744C37.0485 93.6744 36.2579 93.4628 35.6009 93.0508C34.9438 92.6388 34.4316 92.0709 34.0864 91.347C33.73 90.6232 33.5519 89.788 33.563 88.8415L33.5964 80.7568L38.2289 80.7791L38.1955 87.8727C38.1955 88.5074 38.3514 88.9974 38.6632 89.3649C38.975 89.7323 39.4205 89.9105 39.9995 89.9105C40.3781 89.9105 40.7011 89.8326 40.9795 89.6655C41.2467 89.4985 41.4583 89.2646 41.6142 88.964C41.7701 88.6522 41.8481 88.2847 41.8481 87.8615L41.8815 80.8014L46.5029 80.8237L46.4472 93.5408L42.0597 93.5185L42.004 90.2112H42.249C41.9372 91.2023 41.4472 92.0263 40.7679 92.6945C40.0886 93.3626 39.1643 93.6967 37.9728 93.6856L37.9505 93.6744Z" fill="white"/>
<path d="M31.4163 76.3249H26.7949V59.6657H31.1936V62.6056H31.394C32.1401 60.6679 33.933 59.4541 36.4052 59.4541C39.8796 59.4541 42.1513 61.8372 42.1513 65.7236V76.3249H37.5299V66.5476C37.5299 64.5098 36.4274 63.296 34.5678 63.296C32.7081 63.296 31.4274 64.5543 31.4163 66.7035V76.3361V76.3249Z" fill="white"/>
</g>
<defs>
<clipPath id="clip0_1831_11881">
<rect width="77.9287" height="100" fill="white"/>
</clipPath>
</defs>
</svg>
