<svg width="180" height="231" viewBox="0 0 180 231" fill="none" xmlns="http://www.w3.org/2000/svg">
<g clip-path="url(#clip0_1831_9101)">
<path d="M167.836 22.2323L76.5789 1.07638C68.3829 -0.818938 60.2126 4.27794 58.3172 12.4739L52.6569 36.9595H14.4175C6.6825 36.9595 0.381836 43.2345 0.381836 50.9951V216.682C0.381836 224.417 6.65689 230.718 14.4175 230.718H110.464C118.199 230.718 124.5 224.443 124.5 216.682V211.047C132.568 212.687 140.508 207.641 142.377 199.573L179.234 40.494C181.129 32.298 176.032 24.1276 167.836 22.2323Z" fill="#FF6130"/>
<path d="M28.8653 106.343H29.3263L41.6971 67.5405H53.6581L36.0368 118.637H22.1292L4.50781 67.5149H16.4944L28.8397 106.318L28.8653 106.343Z" fill="white"/>
<path d="M59.2168 69.9736C59.2168 67.0282 61.8037 64.6206 64.954 64.6206C68.1043 64.6206 70.7168 67.0282 70.7168 69.9736C70.7168 72.919 68.1299 75.3522 64.954 75.3522C61.778 75.3522 59.2168 72.9447 59.2168 69.9736ZM59.6266 80.2954H70.2558V118.612H59.6266V80.2954Z" fill="white"/>
<path d="M78.9375 67.5149H89.5667V86.7242H89.8996C91.3339 83.5995 94.3818 79.7832 100.811 79.7832C109.211 79.7832 116.332 86.3144 116.332 99.4792C116.332 112.644 109.519 119.201 100.785 119.201C94.5867 119.201 91.3852 115.641 89.8996 112.439H89.413V118.586H78.9375V67.4893V67.5149ZM97.4041 110.774C102.629 110.774 105.472 106.138 105.472 99.4536C105.472 92.7688 102.68 88.261 97.4041 88.261C92.1279 88.261 89.3362 92.6151 89.3362 99.4536C89.3362 106.292 92.2816 110.774 97.4041 110.774Z" fill="white"/>
<path d="M121.812 99.6347C121.812 87.8018 129.112 79.8107 140.407 79.8107C150.524 79.8107 158.413 86.2394 158.413 99.2762V102.196H132.314C132.314 107.933 135.669 111.442 140.996 111.442C144.531 111.442 147.271 109.931 148.347 107.011L158.182 107.651C156.697 114.772 150.294 119.382 140.817 119.382C129.01 119.382 121.812 111.801 121.812 99.6603V99.6347ZM148.398 95.5879C148.398 91.0289 145.171 87.7249 140.561 87.7249C135.951 87.7249 132.519 91.2082 132.314 95.5879H148.398Z" fill="white"/>
<path d="M30.298 176.956C16.6722 176.956 6.37598 167.351 6.37598 150.703C6.37598 134.055 16.6722 124.45 30.298 124.45C43.9239 124.45 54.2201 133.978 54.2201 150.703C54.2201 167.428 43.847 176.956 30.298 176.956ZM30.298 134.029C22.435 134.029 17.3381 139.895 17.3381 150.729C17.3381 161.563 22.4606 167.428 30.298 167.428C38.1354 167.428 43.2579 161.563 43.2579 150.729C43.2579 139.895 38.1098 134.029 30.298 134.029Z" fill="white"/>
<path d="M23.7399 216.145C20.6408 216.171 17.9515 215.582 15.6464 214.404C13.3669 213.2 11.5996 211.484 10.3446 209.23C9.08958 206.976 8.44926 204.287 8.42365 201.162C8.39804 198.165 8.98713 195.502 10.2165 193.248C11.4203 190.968 13.162 189.175 15.3646 187.895C17.5929 186.614 20.2054 185.948 23.2277 185.923C25.4303 185.923 27.4537 186.23 29.2722 186.921C31.0907 187.613 32.653 188.586 33.9593 189.893C35.2655 191.173 36.2644 192.761 36.9816 194.58C37.6987 196.424 38.0573 198.498 38.0829 200.778V203.313L11.702 203.544L11.6508 197.679L33.0885 197.499L28.1453 198.703C28.1453 197.551 27.9404 196.577 27.5818 195.783C27.2232 194.989 26.6853 194.375 25.9938 193.965C25.3023 193.555 24.4314 193.35 23.4326 193.35C22.4337 193.35 21.5885 193.581 20.8969 194.016C20.2054 194.452 19.6931 195.066 19.3346 195.86C18.976 196.654 18.7967 197.627 18.8223 198.78L18.8735 203.134C18.8735 204.364 19.1041 205.388 19.5139 206.233C19.9237 207.079 20.5127 207.668 21.2811 208.077C22.0495 208.487 22.9203 208.692 23.9448 208.666C24.662 208.666 25.3279 208.564 25.917 208.359C26.5061 208.154 27.0183 207.847 27.4537 207.463C27.8635 207.079 28.1965 206.617 28.4014 206.08L37.8012 207.079C37.3657 208.871 36.4949 210.434 35.2399 211.791C33.9593 213.149 32.3713 214.199 30.4248 214.942C28.4782 215.684 26.2755 216.068 23.7655 216.094L23.7399 216.145Z" fill="white"/>
<path d="M53.7098 216.068C51.5327 216.068 49.5606 215.504 47.7933 214.377C46.026 213.25 44.5917 211.585 43.5672 209.332C42.5171 207.103 42.0049 204.337 42.0049 201.008C42.0049 197.575 42.5684 194.758 43.6697 192.555C44.771 190.353 46.2053 188.688 47.9726 187.612C49.7399 186.536 51.6352 185.999 53.6842 186.024C55.0929 186.024 56.3223 186.255 57.398 186.716C58.4737 187.177 59.3701 187.791 60.1129 188.611C60.8557 189.405 61.4448 190.302 61.8546 191.3L61.9826 182.669V161.129L72.6374 161.155L72.535 215.709H62.0338V210.92H61.8289C61.3935 211.97 60.8044 212.866 60.0617 213.634C59.3189 214.403 58.3969 214.992 57.3211 215.453C56.2454 215.888 55.0416 216.119 53.6842 216.093L53.7098 216.068ZM57.5004 207.897C58.4737 207.897 59.3189 207.616 60.0105 207.052C60.702 206.489 61.2655 205.695 61.6753 204.67C62.0851 203.646 62.2644 202.442 62.29 201.033C62.29 199.599 62.1107 198.369 61.7009 197.345C61.2911 196.32 60.7532 195.526 60.0617 194.963C59.3445 194.399 58.5249 194.118 57.5517 194.118C56.5784 194.118 55.7588 194.399 55.0672 194.937C54.3757 195.501 53.8635 196.269 53.4793 197.294C53.1207 198.318 52.9414 199.548 52.9158 200.982C52.9158 202.391 53.0951 203.62 53.4537 204.644C53.8122 205.669 54.3501 206.463 55.016 207.026C55.7076 207.564 56.5272 207.846 57.5004 207.846V207.897Z" fill="white"/>
<path d="M87.6696 216.143C85.595 216.143 83.7765 215.657 82.2654 214.709C80.7542 213.761 79.5761 212.455 78.7821 210.79C77.9625 209.125 77.5527 207.204 77.5783 205.027L77.6551 186.433L88.3099 186.484L88.2331 202.799C88.2331 204.259 88.5916 205.386 89.3088 206.231C90.0259 207.076 91.0504 207.486 92.3823 207.486C93.2531 207.486 93.9959 207.307 94.6362 206.923C95.2509 206.539 95.7375 206.001 96.0961 205.309C96.4547 204.592 96.634 203.747 96.634 202.774L96.7108 186.535L107.34 186.586L107.212 215.836L97.1206 215.785L96.9925 208.178H97.556C96.8389 210.457 95.7119 212.353 94.1495 213.889C92.5872 215.426 90.4613 216.194 87.7208 216.169L87.6696 216.143Z" fill="white"/>
<path d="M72.637 176.239H62.0078V137.922H72.1247V144.684H72.5858C74.3018 140.228 78.4254 137.436 84.1114 137.436C92.1025 137.436 97.3274 142.917 97.3274 151.856V176.239H86.6982V153.751C86.6982 149.064 84.1626 146.272 79.8853 146.272C75.608 146.272 72.6626 149.166 72.637 154.11V176.264V176.239Z" fill="white"/>
</g>
<defs>
<clipPath id="clip0_1831_9101">
<rect width="179.236" height="230" fill="white" transform="translate(0.381836 0.693604)"/>
</clipPath>
</defs>
</svg>
