<svg width="28" height="28" viewBox="0 0 28 28" fill="none" xmlns="http://www.w3.org/2000/svg">
<path d="M12.6 21H15.4V12.6H12.6V21ZM14 9.8C14.3967 9.8 14.7294 9.6656 14.9982 9.3968C15.267 9.128 15.4009 8.79573 15.4 8.4C15.3991 8.00426 15.2647 7.672 14.9968 7.4032C14.7289 7.1344 14.3967 7 14 7C13.6033 7 13.2711 7.1344 13.0032 7.4032C12.7353 7.672 12.6009 8.00426 12.6 8.4C12.5991 8.79573 12.7335 9.12846 13.0032 9.3982C13.2729 9.66793 13.6052 9.80186 14 9.8ZM14 28C12.0633 28 10.2433 27.6323 8.54 26.8968C6.83667 26.1613 5.355 25.1641 4.095 23.905C2.835 22.6459 1.83773 21.1643 1.1032 19.46C0.368668 17.7557 0.000935105 15.9357 1.77215e-06 14C-0.000931561 12.0643 0.366802 10.2443 1.1032 8.54C1.8396 6.83573 2.83687 5.35407 4.095 4.095C5.35313 2.83593 6.8348 1.83867 8.54 1.1032C10.2452 0.367733 12.0652 0 14 0C15.9348 0 17.7548 0.367733 19.46 1.1032C21.1652 1.83867 22.6469 2.83593 23.905 4.095C25.1631 5.35407 26.1609 6.83573 26.8982 8.54C27.6355 10.2443 28.0028 12.0643 28 14C27.9972 15.9357 27.6295 17.7557 26.8968 19.46C26.1641 21.1643 25.1669 22.6459 23.905 23.905C22.6431 25.1641 21.1615 26.1618 19.46 26.8982C17.7585 27.6346 15.9385 28.0019 14 28ZM14 25.2C17.1267 25.2 19.775 24.115 21.945 21.945C24.115 19.775 25.2 17.1267 25.2 14C25.2 10.8733 24.115 8.225 21.945 6.055C19.775 3.885 17.1267 2.8 14 2.8C10.8733 2.8 8.225 3.885 6.055 6.055C3.885 8.225 2.8 10.8733 2.8 14C2.8 17.1267 3.885 19.775 6.055 21.945C8.225 24.115 10.8733 25.2 14 25.2Z" fill="white"/>
</svg>
