<svg width="48" height="50" viewBox="0 0 48 50" fill="none" xmlns="http://www.w3.org/2000/svg">
<path fill-rule="evenodd" clip-rule="evenodd" d="M23.8419 0C17.5677 0 11.852 2.0724 8.46976 3.76559C8.16417 3.91838 7.87896 4.06747 7.61413 4.21285C7.08908 4.49899 6.64182 4.76568 6.28624 5.00042L10.1338 10.6648L11.945 11.3857C19.0234 14.9568 28.5159 14.9568 35.5956 11.3857L37.6514 10.3189L41.2892 5.00042C40.5348 4.51025 39.7513 4.06634 38.9431 3.67114C35.5776 1.996 29.9965 0 23.8419 0ZM14.8953 6.41165C13.5331 6.1553 12.1876 5.81763 10.8658 5.40045C14.0341 3.99339 18.7553 2.50021 23.8433 2.50021C27.3672 2.50021 30.6994 3.21693 33.4552 4.12534C30.2257 4.57955 26.7796 5.35045 23.496 6.29914C20.9125 7.04642 17.8928 6.96586 14.8953 6.41165ZM37.0638 13.4456L36.7221 13.6178C28.9354 17.5459 18.6067 17.5459 10.82 13.6178L10.4963 13.4539C-1.20327 26.2897 -10.1346 50 23.8419 50C57.8183 50 48.6703 25.8494 37.0638 13.4456ZM22.3987 25.0021C21.6619 25.0021 20.9553 25.2948 20.4343 25.8157C19.9134 26.3367 19.6207 27.0433 19.6207 27.7801C19.6207 28.5169 19.9134 29.2235 20.4343 29.7444C20.9553 30.2654 21.6619 30.5581 22.3987 30.5581V25.0021ZM25.1767 22.2241V20.8351H22.3987V22.2241C20.9251 22.2241 19.512 22.8094 18.47 23.8514C17.428 24.8934 16.8427 26.3065 16.8427 27.7801C16.8427 29.2536 17.428 30.6668 18.47 31.7088C19.512 32.7507 20.9251 33.3361 22.3987 33.3361V38.8921C21.1903 38.8921 20.161 38.1212 19.7776 37.0406C19.7208 36.8638 19.629 36.7002 19.5078 36.5595C19.3866 36.4188 19.2384 36.3038 19.072 36.2213C18.9056 36.1389 18.7243 36.0906 18.5389 36.0795C18.3535 36.0683 18.1678 36.0944 17.9927 36.1563C17.8175 36.2182 17.6566 36.3145 17.5194 36.4397C17.3822 36.5648 17.2714 36.7162 17.1937 36.8849C17.1161 37.0536 17.073 37.2362 17.0671 37.4218C17.0612 37.6074 17.0926 37.7924 17.1594 37.9657C17.5423 39.0492 18.2519 39.9873 19.1902 40.6507C20.1285 41.3142 21.2495 41.6703 22.3987 41.6701V43.0591H25.1767V41.6701C26.6503 41.6701 28.0634 41.0848 29.1054 40.0428C30.1474 39.0009 30.7327 37.5877 30.7327 36.1141C30.7327 34.6406 30.1474 33.2274 29.1054 32.1854C28.0634 31.1435 26.6503 30.5581 25.1767 30.5581V25.0021C26.3851 25.0021 27.4144 25.773 27.7978 26.8536C27.8546 27.0304 27.9464 27.194 28.0676 27.3347C28.1888 27.4755 28.337 27.5904 28.5034 27.6729C28.6698 27.7553 28.8511 27.8036 29.0365 27.8147C29.2219 27.8259 29.4076 27.7998 29.5827 27.7379C29.7579 27.676 29.9188 27.5797 30.056 27.4545C30.1932 27.3294 30.304 27.178 30.3817 27.0093C30.4593 26.8406 30.5024 26.658 30.5083 26.4724C30.5142 26.2868 30.4828 26.1018 30.416 25.9285C30.0331 24.845 29.3235 23.907 28.3852 23.2435C27.4469 22.5801 26.3259 22.2239 25.1767 22.2241ZM25.1767 33.3361V38.8921C25.9135 38.8921 26.6201 38.5994 27.1411 38.0785C27.662 37.5575 27.9547 36.8509 27.9547 36.1141C27.9547 35.3773 27.662 34.6707 27.1411 34.1498C26.6201 33.6288 25.9135 33.3361 25.1767 33.3361Z" fill="#FF6130"/>
</svg>
