<svg width="24" height="25" viewBox="0 0 24 25" fill="none" xmlns="http://www.w3.org/2000/svg">
<path d="M11 17.8879V8.03789C10.3167 7.63789 9.59167 7.33789 8.825 7.13789C8.05833 6.93789 7.28333 6.83789 6.5 6.83789C5.9 6.83789 5.30417 6.89622 4.7125 7.01289C4.12083 7.12956 3.55 7.30456 3 7.53789V17.4379C3.58333 17.2379 4.1625 17.0879 4.7375 16.9879C5.3125 16.8879 5.9 16.8379 6.5 16.8379C7.28333 16.8379 8.04583 16.9254 8.7875 17.1004C9.52917 17.2754 10.2667 17.5379 11 17.8879ZM12 20.8379C11.2 20.2046 10.3333 19.7129 9.4 19.3629C8.46667 19.0129 7.5 18.8379 6.5 18.8379C5.8 18.8379 5.1125 18.9296 4.4375 19.1129C3.7625 19.2962 3.11667 19.5546 2.5 19.8879C2.15 20.0712 1.8125 20.0629 1.4875 19.8629C1.1625 19.6629 1 19.3712 1 18.9879V6.93789C1 6.75456 1.04583 6.57956 1.1375 6.41289C1.22917 6.24622 1.36667 6.12122 1.55 6.03789C2.31667 5.63789 3.11667 5.33789 3.95 5.13789C4.78333 4.93789 5.63333 4.83789 6.5 4.83789C7.73333 4.83789 8.78333 4.97956 9.65 5.26289C10.5167 5.54622 11.45 5.97956 12.45 6.56289C12.6333 6.66289 12.7708 6.77956 12.8625 6.91289C12.9542 7.04622 13 7.22122 13 7.43789V17.8879C13.7333 17.5379 14.4708 17.2754 15.2125 17.1004C15.9542 16.9254 16.7167 16.8379 17.5 16.8379C18.1 16.8379 18.6875 16.8879 19.2625 16.9879C19.8375 17.0879 20.4167 17.2379 21 17.4379V5.41289C21.25 5.49622 21.4958 5.58789 21.7375 5.68789C21.9792 5.78789 22.2167 5.90456 22.45 6.03789C22.6333 6.12122 22.7708 6.24622 22.8625 6.41289C22.9542 6.57956 23 6.75456 23 6.93789V18.9879C23 19.3712 22.8375 19.6629 22.5125 19.8629C22.1875 20.0629 21.85 20.0712 21.5 19.8879C20.8833 19.5546 20.2375 19.2962 19.5625 19.1129C18.8875 18.9296 18.2 18.8379 17.5 18.8379C16.5 18.8379 15.5333 19.0129 14.6 19.3629C13.6667 19.7129 12.8 20.2046 12 20.8379ZM15.5 14.8379V3.83789L18.5 2.83789V13.8379L15.5 14.8379Z" fill="#FF6130"/>
</svg>
