<svg width="96" height="100" viewBox="0 0 96 100" fill="none" xmlns="http://www.w3.org/2000/svg">
<path fill-rule="evenodd" clip-rule="evenodd" d="M47.7658 0C35.2176 0 23.786 4.14479 17.0216 7.53118C16.4104 7.83676 15.84 8.13494 15.3103 8.4257C14.2602 8.99797 13.3657 9.53135 12.6545 10.0008L20.3496 21.3296L23.9722 22.7713C38.1289 29.9136 57.1139 29.9136 71.2734 22.7713L75.3848 20.6378L82.6605 10.0008C81.1517 9.0205 79.5848 8.13268 77.9684 7.34228C71.2373 3.992 60.0752 0 47.7658 0ZM29.8727 12.8233C27.1484 12.3106 24.4572 11.6353 21.8136 10.8009C28.1503 7.98677 37.5928 5.00042 47.7686 5.00042C54.8164 5.00042 61.4809 6.43387 66.9925 8.25069C60.5336 9.1591 53.6413 10.7009 47.0741 12.5983C41.907 14.0928 35.8676 13.9317 29.8727 12.8233ZM74.2098 26.8911L73.5264 27.2356C57.9528 35.0918 37.2955 35.0918 21.722 27.2356L21.0747 26.9078C-2.32452 52.5794 -20.1871 100 47.7658 100C115.719 100 97.4228 51.6987 74.2098 26.8911ZM44.8795 50.0042C43.4059 50.0042 41.9927 50.5895 40.9508 51.6315C39.9088 52.6734 39.3235 54.0866 39.3235 55.5602C39.3235 57.0337 39.9088 58.4469 40.9508 59.4889C41.9927 60.5308 43.4059 61.1162 44.8795 61.1162V50.0042ZM50.4355 44.4481V41.6701H44.8795V44.4481C41.9324 44.4481 39.106 45.6189 37.0221 47.7028C34.9382 49.7867 33.7674 52.6131 33.7674 55.5602C33.7674 58.5073 34.9382 61.3337 37.0221 63.4176C39.106 65.5015 41.9324 66.6722 44.8795 66.6722V77.7842C42.4626 77.7842 40.4041 76.2425 39.6374 74.0812C39.5236 73.7276 39.3401 73.4004 39.0977 73.1189C38.8553 72.8375 38.5589 72.6075 38.226 72.4426C37.8932 72.2778 37.5307 72.1813 37.1599 72.159C36.7891 72.1366 36.4176 72.1889 36.0674 72.3126C35.7172 72.4363 35.3953 72.6291 35.1209 72.8794C34.8464 73.1297 34.6249 73.4325 34.4696 73.7699C34.3142 74.1072 34.228 74.4724 34.2162 74.8436C34.2044 75.2149 34.2672 75.5847 34.4008 75.9313C35.1668 78.0983 36.5858 79.9745 38.4625 81.3014C40.3392 82.6283 42.5811 83.3406 44.8795 83.3403V86.1183H50.4355V83.3403C53.3826 83.3403 56.209 82.1695 58.2929 80.0856C60.3768 78.0017 61.5476 75.1753 61.5476 72.2282C61.5476 69.2811 60.3768 66.4548 58.2929 64.3708C56.209 62.2869 53.3826 61.1162 50.4355 61.1162V50.0042C52.8524 50.0042 54.9109 51.546 55.6776 53.7072C55.7914 54.0608 55.9749 54.388 56.2173 54.6695C56.4597 54.9509 56.7561 55.1809 57.089 55.3458C57.4218 55.5107 57.7843 55.6071 58.1551 55.6295C58.5259 55.6518 58.8974 55.5995 59.2476 55.4758C59.5978 55.3521 59.9197 55.1593 60.1941 54.909C60.4686 54.6587 60.6901 54.3559 60.8454 54.0186C61.0008 53.6812 61.087 53.316 61.0988 52.9448C61.1106 52.5735 61.0478 52.2037 60.9142 51.8571C60.1482 49.6901 58.7292 47.8139 56.8525 46.487C54.9758 45.1601 52.7339 44.4478 50.4355 44.4481ZM50.4355 66.6722V77.7842C51.9091 77.7842 53.3223 77.1989 54.3642 76.1569C55.4062 75.115 55.9915 73.7018 55.9915 72.2282C55.9915 70.7547 55.4062 69.3415 54.3642 68.2995C53.3223 67.2576 51.9091 66.6722 50.4355 66.6722Z" fill="white"/>
</svg>
