<svg width="48" height="48" viewBox="0 0 48 48" fill="none" xmlns="http://www.w3.org/2000/svg">
<path d="M39 0C41.4792 0 43.599 0.880208 45.3594 2.64062C47.1198 4.40104 48 6.52083 48 9V39C48 41.4792 47.1198 43.599 45.3594 45.3594C43.599 47.1198 41.4792 48 39 48H33.125V29.4062H39.3438L40.2812 22.1562H33.125V17.5312C33.125 16.3646 33.3698 15.4896 33.8594 14.9062C34.349 14.3229 35.3021 14.0312 36.7188 14.0312L40.5312 14V7.53125C39.2188 7.34375 37.3646 7.25 34.9688 7.25C32.1354 7.25 29.8698 8.08333 28.1719 9.75C26.474 11.4167 25.625 13.7708 25.625 16.8125V22.1562H19.375V29.4062H25.625V48H9C6.52083 48 4.40104 47.1198 2.64062 45.3594C0.880208 43.599 0 41.4792 0 39V9C0 6.52083 0.880208 4.40104 2.64062 2.64062C4.40104 0.880208 6.52083 0 9 0H39Z" fill="#FF6130"/>
</svg>
