<svg width="48" height="48" viewBox="0 0 48 48" fill="none" xmlns="http://www.w3.org/2000/svg">
<path d="M37.0535 0H10.9465C8.04328 0 5.259 1.15328 3.20614 3.20614C1.15328 5.259 0 8.04328 0 10.9465V37.0535C0 39.9567 1.15328 42.741 3.20614 44.7939C5.259 46.8467 8.04328 48 10.9465 48H37.0535C39.9567 48 42.741 46.8467 44.7939 44.7939C46.8467 42.741 48 39.9567 48 37.0535V10.9465C48 8.04328 46.8467 5.259 44.7939 3.20614C42.741 1.15328 39.9567 0 37.0535 0ZM16.2289 38.7495C16.2366 38.8835 16.2169 39.0177 16.1709 39.1437C16.1249 39.2698 16.0536 39.3852 15.9613 39.4827C15.8691 39.5802 15.758 39.6578 15.6347 39.7108C15.5114 39.7638 15.3785 39.791 15.2443 39.7908H10.8628C10.5985 39.7843 10.3474 39.6745 10.1633 39.4849C9.97916 39.2952 9.87679 39.0409 9.87815 38.7766V20.5538C9.87453 20.4223 9.89733 20.2913 9.94519 20.1687C9.99305 20.0461 10.065 19.9344 10.1568 19.84C10.2486 19.7457 10.3584 19.6708 10.4796 19.6196C10.6009 19.5684 10.7312 19.5421 10.8628 19.5422H15.2443C15.3759 19.5421 15.5062 19.5684 15.6275 19.6196C15.7487 19.6708 15.8585 19.7457 15.9503 19.84C16.0421 19.9344 16.114 20.0461 16.1619 20.1687C16.2098 20.2913 16.2325 20.4223 16.2289 20.5538V38.7495ZM12.9723 15.7095C12.4979 15.706 12.0289 15.609 11.592 15.4242C11.1551 15.2394 10.7589 14.9703 10.426 14.6324C10.093 14.2944 9.82994 13.8942 9.65169 13.4546C9.47344 13.015 9.38352 12.5445 9.38708 12.0702C9.39063 11.5958 9.48759 11.1267 9.67241 10.6898C9.85723 10.2529 10.1263 9.85672 10.4642 9.5238C10.8022 9.19088 11.2024 8.92778 11.642 8.74953C12.0817 8.57128 12.5521 8.48137 13.0265 8.48492C13.968 8.51554 14.8604 8.91292 15.5131 9.59226C16.1658 10.2716 16.5271 11.1791 16.5201 12.1212C16.513 13.0632 16.1381 13.9652 15.4752 14.6347C14.8124 15.3042 13.9142 15.6881 12.9723 15.7046M39.5988 38.72C39.5976 38.9687 39.5 39.2073 39.3264 39.3854C39.1528 39.5636 38.9169 39.6674 38.6683 39.6751H34.0431C33.794 39.6674 33.5578 39.5632 33.3841 39.3846C33.2105 39.2059 33.1131 38.9667 33.1126 38.7175V30.2892C33.1126 29.0314 33.4966 24.8172 29.7748 24.8172C26.8726 24.8172 26.2991 27.7711 26.1883 29.0855V38.9095C26.1884 39.1591 26.0913 39.3989 25.9177 39.5781C25.744 39.7573 25.5073 39.8619 25.2578 39.8695H20.7705C20.5163 39.8689 20.2727 39.7675 20.0932 39.5875C19.9137 39.4075 19.8129 39.1637 19.8129 38.9095V20.4652C19.8206 20.2158 19.9251 19.9791 20.1043 19.8054C20.2835 19.6317 20.5234 19.5347 20.7729 19.5348H25.2578C25.5074 19.5347 25.7472 19.6317 25.9264 19.8054C26.1056 19.9791 26.2102 20.2158 26.2178 20.4652V22.0529C26.8727 21.0945 27.7768 20.333 28.8326 19.8506C29.8885 19.3682 31.056 19.1833 32.2092 19.3157C39.68 19.3157 39.6529 26.2942 39.6529 30.2622L39.5988 38.72Z" fill="#FF6130"/>
</svg>
